<svg width="41" height="25" viewBox="0 0 41 25" fill="none" xmlns="http://www.w3.org/2000/svg">
<path d="M40.1111 16.738H14.8413V18.142L40.1131 18.3426V16.738H40.1111Z" fill="#D81159"/>
<path d="M40.1111 19.9482H14.8413V21.1517H40.1131V19.9482H40.1111Z" fill="#D81159"/>
<path d="M32.9217 19.9472C26.0706 19.9472 19.2196 19.6848 12.3686 19.6848C12.2543 19.6848 12.1348 19.7019 12.0257 19.6769C11.9456 19.6585 11.8405 19.5994 11.8103 19.5311C11.6224 19.1068 11.4516 18.6759 11.2572 18.2003H14.8423V16.738L3.81765 16.8057L3.80717 16.8023C3.17264 16.8019 3.80717 16.8025 2.34629 16.8051C2.34104 17.0074 2.24776 17.2544 2.10851 17.3976C1.42144 18.1018 0.705464 18.777 0 19.4628V21.1352H4.55596C5.11823 22.9323 6.22963 24.0358 8.10692 24.0871C10.1051 24.1409 11.2835 23.0111 11.8747 21.1838H32.9217V19.9472ZM4.55202 19.6651H2.05202C2.80084 18.5327 3.7165 17.8338 5.15501 18.3015C4.96584 18.7297 4.76352 19.1856 4.55202 19.6651ZM8.22122 22.6289C6.98633 22.6289 6.0063 21.6501 6.01024 20.4192C6.01418 19.2 7.02968 18.199 8.24224 18.2174C9.44297 18.2345 10.4269 19.2211 10.4348 20.4152C10.444 21.6331 9.44954 22.6275 8.2199 22.6275L8.22122 22.6289Z" fill="#D81159"/>
<rect x="2.23836" y="0.926348" width="37.2427" height="14.3777" stroke="#D81159" stroke-width="1.26676"/>
</svg>
