<svg width="200" height="67" viewBox="0 0 200 67" fill="none" xmlns="http://www.w3.org/2000/svg">
<path d="M93.8684 51.1877C74.3344 51.1877 54.8003 51.1877 35.2662 51.1877C34.9403 51.1877 34.5995 51.2364 34.2886 51.1652C34.0601 51.1128 33.7604 50.9442 33.6743 50.7494C33.1386 49.5395 32.6517 48.3109 32.0973 46.955H42.3195V42.7856L10.8851 42.9786L10.8553 42.9688C9.04605 42.9678 10.8553 42.9694 6.68991 42.977C6.67492 43.5538 6.40897 44.258 6.01192 44.6663C4.0529 46.674 2.01147 48.5994 0 50.5546V55.323H12.9903C14.5934 60.4472 17.7623 63.5937 23.115 63.7397C28.8123 63.8933 32.1722 60.672 33.8578 55.4616H93.8684V51.1877ZM12.979 51.1315H5.85086C7.98593 47.9026 10.5967 45.9099 14.6983 47.2434C14.1589 48.4645 13.5821 49.7643 12.979 51.1315ZM23.4409 59.5819C19.9199 59.5819 17.1256 56.7913 17.1368 53.2816C17.148 49.8055 20.0435 46.9512 23.5008 47.0037C26.9244 47.0524 29.73 49.8654 29.7525 53.2703C29.7787 56.7427 26.9432 59.5782 23.4371 59.5782L23.4409 59.5819Z" fill="#02B47E"/>
<path d="M121.199 42.7715H46.3477V47.5243H121.205V42.7715H121.199Z" fill="#02B47E"/>
<path d="M113.946 51.0825H46.332V55.8354H113.952L114.608 51.0825H113.946Z" fill="#02B47E"/>
<g clip-path="url(#clip0_2840_244835)">
<path d="M193.791 41.5048C193.791 34.1563 193.812 26.9951 193.76 19.8338C193.756 19.0328 193.482 18.1099 193.029 17.4526C189.294 12.0457 185.463 6.70853 181.723 1.30604C181.062 0.348307 180.361 -0.00431358 179.194 3.9761e-05C168.315 0.0479265 157.436 0.0261598 146.557 0.0305131C146.03 0.0305131 145.499 0.0783998 144.79 0.113227V41.6745H121.203V46.5503H144.716V51.3607H143.009C135.739 51.3607 137.537 51.2084 130.267 51.2084V56.3279H144.938C146.74 62.0873 150.375 65.7224 156.517 65.94C163.217 66.1795 167.161 62.4182 169.16 56.2234C169.878 56.2234 170.583 56.2234 171.284 56.2234C180.53 56.206 189.773 56.1842 199.019 56.1625V41.4961H193.791V41.5048ZM188.184 19.1243C188.819 20.6958 188.858 22.5024 189.22 24.4745C185.572 24.4745 182.376 24.4745 179.185 24.4745C175.994 24.4745 172.781 24.4745 169.39 24.4745V14.6969H176.591C177.679 14.6969 178.798 14.8667 179.847 14.6664C183.878 13.8872 186.69 15.437 188.184 19.1243ZM157.027 61.1209C152.991 61.1209 149.739 57.943 149.713 53.964C149.687 49.8675 152.882 46.5677 156.935 46.5067C160.94 46.4502 164.34 49.7761 164.371 53.7899C164.406 57.8124 161.093 61.1209 157.027 61.1209ZM159.547 41.4438V22.1411H154.593C154.593 22.9073 154.593 23.6474 154.593 24.3918C154.593 29.7682 154.571 35.1445 154.611 40.5209C154.619 41.4786 154.384 41.9445 153.383 42.2231C152.203 42.5539 151.106 43.1895 149.852 43.7424V5.02379H154.55V17.0347H159.417V4.99332C160.078 4.96285 160.596 4.92367 161.115 4.91931C166.339 4.91496 171.558 4.95414 176.782 4.88884C177.91 4.87578 178.584 5.24581 179.15 6.16872C179.847 7.30929 180.665 8.37586 181.623 9.75152H164.519V29.298H188.841V41.4395H159.547V41.4438ZM194.021 51.2084H169.138C168.415 49.5802 167.766 48.1175 167.074 46.5459H194.021V51.2084Z" fill="#162854"/>
</g>
<circle cx="122.98" cy="54.0599" r="10.0998" stroke="#162854" stroke-width="4.75283"/>
<defs>
<clipPath id="clip0_2840_244835">
<rect width="77.8159" height="65.9574" fill="white" transform="translate(121.203)"/>
</clipPath>
</defs>
</svg>
