<svg width="202" height="67" viewBox="0 0 202 67" fill="none" xmlns="http://www.w3.org/2000/svg">
<path d="M93.8684 51.1874C74.3344 51.1874 54.8003 51.1874 35.2662 51.1874C34.9403 51.1874 34.5995 51.2361 34.2886 51.165C34.0601 51.1125 33.7604 50.944 33.6743 50.7492C33.1386 49.5393 32.6517 48.3107 32.0973 46.9547H42.3195V42.7854L10.8851 42.9783L10.8553 42.9685C9.04605 42.9676 10.8553 42.9691 6.68991 42.9767C6.67492 43.5536 6.40897 44.2578 6.01192 44.6661C4.0529 46.6738 2.01147 48.5991 0 50.5544V55.3228H12.9903C14.5934 60.447 17.7623 63.5934 23.115 63.7395C28.8123 63.8931 32.1722 60.6717 33.8578 55.4614H93.8684V51.1874ZM12.979 51.1313H5.85086C7.98593 47.9024 10.5967 45.9097 14.6983 47.2431C14.1589 48.4643 13.5821 49.764 12.979 51.1313ZM23.4409 59.5817C19.9199 59.5817 17.1256 56.7911 17.1368 53.2813C17.148 49.8053 20.0435 46.951 23.5008 47.0034C26.9244 47.0521 29.73 49.8652 29.7525 53.2701C29.7787 56.7424 26.9432 59.578 23.4371 59.578L23.4409 59.5817Z" fill="#D81159"/>
<path d="M121.199 42.7712H46.3477V47.5241H121.205V42.7712H121.199Z" fill="#D81159"/>
<path d="M113.946 51.0823H46.332V55.8351H113.952L114.608 51.0823H113.946Z" fill="#D81159"/>
<g clip-path="url(#clip0_2840_244827)">
<path d="M195.791 41.5048C195.791 34.1563 195.812 26.9951 195.76 19.8338C195.756 19.0328 195.482 18.1099 195.029 17.4526C191.294 12.0457 187.463 6.70853 183.723 1.30604C183.062 0.348307 182.361 -0.00431358 181.194 3.9761e-05C170.315 0.0479265 159.436 0.0261598 148.557 0.0305131C148.03 0.0305131 147.499 0.0783998 146.79 0.113227V41.6745H123.203V46.5503H146.716V51.3607H145.009C137.739 51.3607 139.537 51.2084 132.267 51.2084V56.3279H146.938C148.74 62.0873 152.375 65.7224 158.517 65.94C165.217 66.1795 169.161 62.4182 171.16 56.2234C171.878 56.2234 172.583 56.2234 173.284 56.2234C182.53 56.206 191.773 56.1842 201.019 56.1625V41.4961H195.791V41.5048ZM190.184 19.1243C190.819 20.6958 190.858 22.5024 191.22 24.4745C187.572 24.4745 184.376 24.4745 181.185 24.4745C177.994 24.4745 174.781 24.4745 171.39 24.4745V14.6969H178.591C179.679 14.6969 180.798 14.8667 181.847 14.6664C185.878 13.8872 188.69 15.437 190.184 19.1243ZM159.027 61.1209C154.991 61.1209 151.739 57.943 151.713 53.964C151.687 49.8675 154.882 46.5677 158.935 46.5067C162.94 46.4502 166.34 49.7761 166.371 53.7899C166.406 57.8124 163.093 61.1209 159.027 61.1209ZM161.547 41.4438V22.1411H156.593C156.593 22.9073 156.593 23.6474 156.593 24.3918C156.593 29.7682 156.571 35.1445 156.611 40.5209C156.619 41.4786 156.384 41.9445 155.383 42.2231C154.203 42.5539 153.106 43.1895 151.852 43.7424V5.02379H156.55V17.0347H161.417V4.99332C162.078 4.96285 162.596 4.92367 163.115 4.91931C168.339 4.91496 173.558 4.95414 178.782 4.88884C179.91 4.87578 180.584 5.24581 181.15 6.16872C181.847 7.30929 182.665 8.37586 183.623 9.75152H166.519V29.298H190.841V41.4395H161.547V41.4438ZM196.021 51.2084H171.138C170.415 49.5802 169.766 48.1175 169.074 46.5459H196.021V51.2084Z" fill="#162854"/>
</g>
<circle cx="124.98" cy="54.0597" r="10.0998" stroke="#162854" stroke-width="4.75283"/>
<defs>
<clipPath id="clip0_2840_244827">
<rect width="77.8159" height="65.9574" fill="white" transform="translate(123.203)"/>
</clipPath>
</defs>
</svg>
