<svg width="43" height="46" viewBox="0 0 43 46" fill="none" xmlns="http://www.w3.org/2000/svg">
<path d="M21.8718 45.5625C20.4545 45.5625 19.3057 44.4471 19.3057 43.0712C19.3057 41.7936 20.2963 40.7405 21.5725 40.5966L21.8718 40.5799L34.7022 40.5799C36.0181 40.5799 37.1027 39.6181 37.251 38.3791L37.2682 38.0885L37.2682 8.19271C37.2682 6.91504 36.2776 5.86206 35.0014 5.71815L34.7022 5.70139L23.1548 5.70139C21.7376 5.70139 20.5888 4.58603 20.5888 3.21007C20.5888 1.9324 21.5793 0.879415 22.8556 0.73551L23.1548 0.718752L34.7022 0.718751C38.8019 0.71875 42.1532 3.8301 42.3873 7.75354L42.4004 8.19271L42.4004 38.0885C42.4004 42.0689 39.1956 45.3225 35.1545 45.5498L34.7022 45.5625L21.8718 45.5625Z" fill="#22315F"/>
<path d="M25.3477 21.3778L18.0896 14.3313C17.0875 13.3583 15.4629 13.3583 14.4606 14.3313C13.4586 15.3042 13.4586 16.8816 14.4606 17.8545L17.3382 20.6481L3.44498 20.6481C2.02774 20.6481 0.878905 21.7634 0.878905 23.1394C0.878904 24.5154 2.02774 25.6307 3.44498 25.6307L17.3382 25.6307L14.4606 28.4242C13.4586 29.3971 13.4586 30.9746 14.4606 31.9475C15.4629 32.9206 17.0875 32.9206 18.0896 31.9475L25.3477 24.901C26.3498 23.9282 26.3498 22.3507 25.3477 21.3778Z" fill="#22315F"/>
</svg>
