<svg width="22" height="22" viewBox="0 0 22 22" fill="none" xmlns="http://www.w3.org/2000/svg">
<path d="M19.657 16.6657C19.657 16.9878 19.5854 17.3189 19.4333 17.641C19.2812 17.9631 19.0843 18.2673 18.8249 18.5536C18.3864 19.0368 17.9033 19.3857 17.3575 19.6094C16.8206 19.8331 16.2391 19.9494 15.6127 19.9494C14.7001 19.9494 13.7249 19.7347 12.6959 19.2963C11.667 18.8578 10.638 18.2673 9.61801 17.5247C8.58906 16.7731 7.6138 15.941 6.68327 15.0194C5.76169 14.0889 4.92959 13.1136 4.18696 12.0936C3.45327 11.0736 2.86275 10.0536 2.43327 9.04258C2.0038 8.02258 1.78906 7.04732 1.78906 6.11679C1.78906 5.50837 1.89643 4.92679 2.11117 4.38995C2.3259 3.84416 2.6659 3.34311 3.14012 2.89574C3.71275 2.33206 4.33906 2.05469 5.00117 2.05469C5.25169 2.05469 5.50222 2.10837 5.7259 2.21574C5.95854 2.32311 6.16433 2.48416 6.32538 2.71679L8.40117 5.64258C8.56222 5.86627 8.67854 6.07206 8.75906 6.2689C8.83959 6.45679 8.88433 6.64469 8.88433 6.81469C8.88433 7.02942 8.82169 7.24416 8.69643 7.44995C8.58012 7.65574 8.41011 7.87048 8.19538 8.08521L7.51538 8.79206C7.41696 8.89048 7.37222 9.00679 7.37222 9.14995C7.37222 9.22153 7.38117 9.28416 7.39906 9.35574C7.4259 9.42732 7.45275 9.481 7.47064 9.53469C7.63169 9.82995 7.90906 10.2147 8.30275 10.68C8.70538 11.1452 9.13485 11.6194 9.60011 12.0936C10.0833 12.5678 10.5485 13.0063 11.0227 13.4089C11.488 13.8026 11.8727 14.071 12.177 14.2321C12.2217 14.25 12.2754 14.2768 12.338 14.3036C12.4096 14.3305 12.4812 14.3394 12.5617 14.3394C12.7138 14.3394 12.8301 14.2857 12.9285 14.1873L13.6085 13.5163C13.8322 13.2926 14.047 13.1226 14.2527 13.0152C14.4585 12.89 14.6643 12.8273 14.888 12.8273C15.058 12.8273 15.237 12.8631 15.4338 12.9436C15.6306 13.0242 15.8364 13.1405 16.0601 13.2926L19.0217 15.3952C19.2543 15.5563 19.4154 15.7442 19.5138 15.9678C19.6033 16.1915 19.657 16.4152 19.657 16.6657Z" stroke="#22315F" stroke-width="1.34211" stroke-miterlimit="10"/>
</svg>
