<svg width="18" height="18" viewBox="0 0 18 18" fill="none" xmlns="http://www.w3.org/2000/svg">
<path d="M16.4475 5.07001L13.92 15.2175C13.74 15.975 13.065 16.5 12.285 16.5H2.42998C1.29748 16.5 0.487487 15.39 0.824987 14.3025L3.98248 4.16254C4.19998 3.45754 4.85249 2.96997 5.58749 2.96997H14.8125C15.525 2.96997 16.1175 3.40497 16.365 4.00497C16.5075 4.32747 16.5375 4.69501 16.4475 5.07001Z" stroke="#1E2E5C" stroke-miterlimit="10"/>
<path d="M12 16.5H15.585C16.5525 16.5 17.31 15.6825 17.2425 14.715L16.5 4.5" stroke="#1E2E5C" stroke-miterlimit="10" stroke-linecap="round" stroke-linejoin="round"/>
<path d="M7.26013 4.78506L8.04014 1.5451" stroke="#1E2E5C" stroke-miterlimit="10" stroke-linecap="round" stroke-linejoin="round"/>
<path d="M12.2852 4.79251L12.9902 1.53754" stroke="#1E2E5C" stroke-miterlimit="10" stroke-linecap="round" stroke-linejoin="round"/>
<path d="M5.77502 9H11.775" stroke="#1E2E5C" stroke-miterlimit="10" stroke-linecap="round" stroke-linejoin="round"/>
<path d="M5.02502 12H11.025" stroke="#1E2E5C" stroke-miterlimit="10" stroke-linecap="round" stroke-linejoin="round"/>
</svg>
