<svg width="16" height="19" viewBox="0 0 16 19" fill="none" xmlns="http://www.w3.org/2000/svg">
<path d="M14.4635 0.109499C14.846 0.232115 15.1348 0.449362 15.2203 0.86066C15.24 0.955659 15.2445 1.05508 15.2445 1.15265C15.246 2.65313 15.246 4.15361 15.2453 5.65373C15.2449 6.31173 14.8613 6.68989 14.194 6.69173C13.6167 6.6932 13.0394 6.69394 12.4625 6.69173C11.8266 6.68915 11.4407 6.31541 11.4355 5.68834C11.4299 5.00235 11.434 4.31673 11.434 3.63075C11.434 3.56447 11.434 3.49856 11.434 3.40503C11.3314 3.40503 11.247 3.40503 11.1631 3.40503C10.6417 3.40503 10.1204 3.40945 9.59907 3.40209C9.47368 3.40024 9.41024 3.44148 9.35986 3.55195C9.23074 3.83548 9.01616 4.0461 8.7318 4.17681C8.61425 4.23094 8.57133 4.2939 8.57171 4.42425C8.57544 7.82325 8.57544 11.2219 8.57171 14.6209C8.57171 14.7446 8.61126 14.8043 8.72359 14.8551C9.01467 14.9876 9.2244 15.2056 9.36956 15.4895C9.39979 15.5488 9.47741 15.6232 9.53376 15.6243C10.1417 15.6331 10.75 15.6291 11.3582 15.6276C11.3758 15.6276 11.3933 15.618 11.4336 15.6066C11.4336 15.5455 11.4336 15.4799 11.4336 15.4144C11.4336 14.7468 11.4329 14.0792 11.4336 13.4117C11.4347 12.7117 11.8046 12.3446 12.5087 12.3438C13.0797 12.3431 13.6507 12.3416 14.2216 12.3442C14.8523 12.3472 15.2438 12.7323 15.2445 13.3542C15.2464 14.8731 15.2464 16.3916 15.2445 17.9105C15.2438 18.5313 14.849 18.9224 14.2231 18.9253C13.6335 18.9279 13.0439 18.9279 12.4543 18.9253C11.8333 18.9224 11.4444 18.5442 11.4347 17.9297C11.4288 17.55 11.4336 17.1704 11.4332 16.7908C11.4332 16.7249 11.4332 16.6586 11.4332 16.5739C11.0798 16.5739 10.7462 16.5739 10.413 16.5739C10.1275 16.5739 9.84163 16.5684 9.55653 16.5787C9.50018 16.5809 9.41957 16.6302 9.39457 16.68C9.12476 17.2106 8.69336 17.5081 8.09366 17.5077C7.49434 17.5077 7.06182 17.2113 6.79388 16.6792C6.77 16.6321 6.69947 16.5791 6.64983 16.5783C6.04155 16.5717 5.43327 16.5746 4.82499 16.5757C4.80782 16.5757 4.79103 16.5853 4.75446 16.596C4.75446 17.0018 4.75707 17.4109 4.75296 17.8196C4.75147 17.9532 4.75147 18.0917 4.71863 18.2198C4.61526 18.6271 4.27268 18.911 3.84465 18.9194C3.18076 18.9327 2.51613 18.9364 1.85262 18.9187C1.32158 18.9047 0.946912 18.4912 0.943926 17.9466C0.939075 17.0953 0.942434 16.244 0.942434 15.393C0.942434 14.7196 0.941314 14.0457 0.942434 13.3723C0.943926 12.7268 1.32979 12.3457 1.98435 12.3438C2.56763 12.342 3.15128 12.3413 3.73456 12.3438C4.35777 12.3472 4.74587 12.722 4.75185 13.338C4.75856 14.0299 4.75371 14.7221 4.75371 15.414C4.75371 15.4796 4.75371 15.5455 4.75371 15.6305C5.07987 15.6305 5.38289 15.6305 5.68591 15.6305C5.99005 15.6305 6.29419 15.6254 6.59834 15.6331C6.71551 15.6361 6.77746 15.5959 6.82411 15.4921C6.95547 15.2016 7.17191 14.9847 7.46486 14.8558C7.59211 14.7998 7.61562 14.724 7.61525 14.6017C7.61114 13.6403 7.61301 12.6789 7.61301 11.7171C7.61301 9.29796 7.61189 6.87915 7.61562 4.45997C7.61562 4.31637 7.58577 4.22984 7.43985 4.1654C7.1596 4.04168 6.95398 3.82811 6.82747 3.55085C6.77709 3.44038 6.71365 3.39988 6.58826 3.40135C5.98707 3.40835 5.38588 3.4043 4.76379 3.4043C4.75968 3.48309 4.75371 3.54753 4.75371 3.61197C4.75296 4.28544 4.75446 4.95927 4.75296 5.63274C4.75147 6.32057 4.37867 6.69025 3.68717 6.69136C3.1162 6.69209 2.54524 6.6932 1.97427 6.69136C1.33129 6.68878 0.942807 6.30584 0.94206 5.67177C0.940568 4.21437 0.941687 2.7566 0.941687 1.2992C0.943553 0.590757 1.08312 0.378665 1.72574 0.109499C2.48292 0.109499 3.24047 0.109499 3.99765 0.109499C4.0234 0.123491 4.04803 0.141166 4.07564 0.150739C4.50144 0.29913 4.73281 0.596649 4.75147 1.04145C4.76192 1.2981 4.7552 1.55585 4.75558 1.81287C4.75558 2.02533 4.75558 2.23779 4.75558 2.46093C5.40789 2.46093 6.03409 2.46387 6.66028 2.4554C6.71104 2.45467 6.7797 2.38507 6.80806 2.33095C7.07675 1.81655 7.50255 1.52971 8.08583 1.52713C8.67657 1.52418 9.11543 1.80587 9.37591 2.33426C9.42442 2.43257 9.47816 2.46461 9.58563 2.4635C10.1006 2.45835 10.616 2.46129 11.131 2.46129C11.2276 2.46129 11.3239 2.46129 11.4344 2.46129C11.4344 2.36224 11.434 2.28971 11.4344 2.21717C11.437 1.80071 11.4254 1.38389 11.4471 0.968547C11.4668 0.584866 11.6881 0.325274 12.0441 0.175778C12.0938 0.15479 12.1427 0.131592 12.1919 0.109131C12.9491 0.109131 13.7066 0.109131 14.4638 0.109131L14.4635 0.109499ZM3.79501 5.74652V1.06686H1.91233V5.74652H3.79501ZM14.278 5.74578V1.06649H12.3942V5.74578H14.278ZM3.79278 17.9728V13.2887H1.91419V17.9728H3.79278ZM14.2743 17.972V13.2953H12.3968V17.972H14.2743ZM8.1015 3.40024C8.35041 3.39619 8.5773 3.16753 8.57245 2.92488C8.5676 2.67965 8.3366 2.45945 8.08807 2.46314C7.8399 2.46682 7.61301 2.69585 7.61749 2.9385C7.62197 3.18373 7.85296 3.4043 8.1015 3.40061V3.40024ZM8.09516 16.5721C8.34332 16.5721 8.57208 16.3467 8.57208 16.103C8.57208 15.8585 8.34332 15.6346 8.09404 15.6346C7.84475 15.6346 7.61637 15.8596 7.61711 16.1037C7.61786 16.3475 7.84699 16.5721 8.09516 16.5717V16.5721Z" fill="white"/>
</svg>
