<svg width="178" height="76" viewBox="0 0 178 76" fill="none" xmlns="http://www.w3.org/2000/svg">
<path d="M177.519 67.6878C169.926 67.7056 162.336 67.7199 154.742 67.7378C154.163 67.7378 153.587 67.7378 152.997 67.7378C151.356 72.8252 148.117 75.9141 142.615 75.7175C137.571 75.5387 134.586 72.5535 133.105 67.8236H72.5499C70.9411 72.793 67.7378 75.8712 62.2965 75.7246C57.1912 75.5852 54.1666 72.5857 52.6329 67.6913H40.2344C40.2344 66.1755 40.2344 64.656 40.2344 63.1402C42.1542 61.274 44.1027 59.4364 45.9725 57.5201C46.3514 57.1304 46.6088 56.4583 46.6196 55.9077C46.6839 53.2371 46.6482 58.586 46.6482 55.801H50.6237V55.6575H80.6262V59.7009H70.8696C71.3988 60.9951 71.8635 62.1713 72.3748 63.3225C72.457 63.5084 72.743 63.6693 72.9611 63.7194C73.2578 63.7873 73.5832 63.7408 73.8942 63.7408C93.1033 63.7408 112.312 63.7408 131.522 63.7408H132.923V59.7903H84.8341V55.7862H132.984V21.6508C133.57 21.6222 134.003 21.5829 134.435 21.5829C143.37 21.5793 152.304 21.5972 161.238 21.5579C162.196 21.5543 162.768 21.8439 163.312 22.6269C166.383 27.0636 169.529 31.4467 172.596 35.887C172.968 36.4268 173.19 37.1848 173.197 37.8426C173.243 43.7237 173.222 49.6048 173.222 55.6396H177.516V67.6842L177.519 67.6878ZM169.161 45.6185H149.186V29.5662H163.233C162.446 28.44 161.778 27.5605 161.202 26.6238C160.738 25.8659 160.183 25.5585 159.257 25.5728C154.971 25.6264 150.681 25.5942 146.391 25.5978C145.965 25.5978 145.543 25.6335 144.996 25.6586V35.5474H140.999V25.6836H137.142V57.4808C138.171 57.0232 139.069 56.5012 140.041 56.233C140.86 56.0042 141.053 55.6181 141.049 54.8352C141.017 50.4199 141.035 46.0046 141.035 41.5893C141.035 40.9816 141.035 40.3702 141.035 39.741H145.104V55.5895H169.161V45.6185ZM153.187 41.6573C155.972 41.6573 158.603 41.6573 161.231 41.6573C163.859 41.6573 166.472 41.6573 169.472 41.6573C169.175 40.0377 169.143 38.5505 168.621 37.2634C167.394 34.2353 165.089 32.9661 161.774 33.6025C160.913 33.767 159.994 33.6275 159.1 33.6275H153.187V41.6573ZM62.6075 71.7491C65.9503 71.7491 68.6602 69.0427 68.6352 65.7286C68.6102 62.4788 65.9324 59.7939 62.6683 59.7474C59.3649 59.6973 56.6049 62.4216 56.5942 65.7393C56.5834 69.0892 59.2505 71.7527 62.6111 71.7527L62.6075 71.7491ZM143.03 71.7491C146.369 71.7491 149.086 69.0284 149.061 65.7286C149.033 62.4323 146.244 59.7009 142.955 59.7474C139.626 59.7974 137.002 62.5038 137.024 65.8716C137.045 69.1393 139.716 71.7527 143.03 71.7491ZM152.976 63.6121H173.411V59.7831H151.281C151.853 61.0738 152.386 62.275 152.976 63.6121ZM54.2667 59.9726C50.352 58.6999 47.8565 60.6019 45.8223 63.6836H52.6258C53.2049 62.3787 53.7519 61.1381 54.2667 59.9726Z" fill="#162854"/>
<rect x="46.4743" y="20.6663" width="82.0143" height="31.2011" stroke="#162854" stroke-width="3.56584"/>
<g clip-path="url(#clip0_1245_103253)">
<path d="M20.3994 18.1567C20.9608 19.0764 21.4747 19.9145 21.9859 20.7552C22.5446 21.6776 22.5921 22.621 22.0097 23.5434C21.422 24.4711 20.5338 24.7847 19.4665 24.7082C15.0101 24.3894 10.5536 24.0731 6.09985 23.7621C3.6832 23.5935 2.68703 21.9912 3.62786 19.7432C5.32505 15.69 7.04595 11.6473 8.73259 7.5888C9.18325 6.50829 9.83155 5.72295 11.0728 5.62807C12.3141 5.5332 13.0968 6.20522 13.6792 7.21985C14.1009 7.95512 14.5647 8.66931 15.0707 9.48628C15.4186 9.28335 15.7216 9.11469 16.0168 8.93285C20.4073 6.23685 24.7979 3.53558 29.1911 0.842219C31.0701 -0.309443 32.3377 -0.011645 33.4894 1.8463C34.2167 3.01641 34.9441 4.18916 35.653 5.37244C36.6308 7.00902 36.2987 8.37678 34.6648 9.3835C30.3058 12.0716 25.939 14.7465 21.5775 17.4267C21.2138 17.6481 20.8554 17.8747 20.4021 18.1567H20.3994ZM19.0738 21.696C18.5784 20.8764 18.2094 20.2624 17.8378 19.6536C16.7283 17.8352 16.9866 16.7705 18.805 15.6531C23.3115 12.8859 27.818 10.1161 32.3245 7.34634C32.567 7.19613 32.7963 7.02483 33.0835 6.82717C32.3377 5.61753 31.6235 4.4606 30.8935 3.27731C30.4429 3.54876 30.1029 3.74641 29.7682 3.94934C25.2907 6.70068 20.8158 9.45992 16.3304 12.2034C14.8177 13.1284 13.6924 12.8517 12.7436 11.36C12.2956 10.6564 11.8661 9.9422 11.3258 9.06989C9.6418 13.0783 8.03685 16.897 6.39501 20.7973C10.6459 21.0978 14.7386 21.3877 19.0738 21.6934V21.696Z" fill="#D81159"/>
<path d="M1.42521 66.4741C1.05098 66.113 0.489647 65.7863 0.249827 65.2987C-0.0980439 64.5924 0.27618 63.9678 0.932391 63.5488C3.15138 62.1389 5.37038 60.7316 7.58937 59.3243C8.25612 58.9026 8.91233 58.4652 9.58962 58.0619C10.454 57.548 11.2974 57.6904 11.7612 58.394C12.2355 59.1161 12.0537 59.9831 11.2183 60.5181C8.31673 62.3813 5.39673 64.2208 2.47673 66.0577C2.23427 66.2105 1.93647 66.2764 1.42257 66.4767L1.42521 66.4741Z" fill="#162854"/>
<path d="M1.46375 60.0282C1.09479 59.7119 0.446488 59.4194 0.325261 58.9819C0.190856 58.4944 0.346344 57.601 0.702121 57.3559C2.7709 55.9196 4.91346 54.5888 7.07711 53.2974C7.80975 52.8599 8.48968 53.2315 8.91661 53.922C9.33036 54.594 9.07737 55.4479 8.29993 55.9512C6.40245 57.1793 4.48917 58.3784 2.57324 59.5749C2.30443 59.7436 1.97765 59.8226 1.46111 60.0308L1.46375 60.0282Z" fill="#162854"/>
<path d="M1.33888 53.7187C1.06744 53.471 0.474474 53.1679 0.30581 52.7094C0.150322 52.2904 0.27155 51.4655 0.585161 51.2283C1.82906 50.2848 3.1652 49.4441 4.53033 48.6799C5.16546 48.3241 5.93499 48.5956 6.19326 49.2597C6.383 49.7499 6.39618 50.696 6.09575 50.9252C4.78069 51.9319 3.32332 52.7516 1.91339 53.6318C1.83697 53.6792 1.72101 53.6634 1.33888 53.7161V53.7187Z" fill="#162854"/>
<path d="M26.1804 61.7251C25.851 61.8648 25.5452 62.0677 25.2395 62.2601C20.2429 65.4225 15.2488 68.5903 10.2495 71.7501C9.94905 71.9398 9.61436 72.2007 9.29021 72.2086C7.66681 72.2561 6.03814 72.2297 4.41211 72.2297C4.39366 72.1665 4.37522 72.1006 4.35677 72.0373C17.9079 63.4513 31.4617 54.8652 45.2395 46.1368V42.442C44.6228 42.9163 43.9956 43.3749 43.3499 43.8097C41.4761 45.0695 39.5418 46.2369 37.5942 47.4703C37.3439 47.0908 37.1436 46.7956 36.9512 46.4952C34.0997 42.0019 31.2535 37.5033 28.402 33.0099C27.1317 31.0097 25.7798 30.7013 23.7795 31.9663C18.5588 35.2658 13.3382 38.568 8.12273 41.8754C6.00915 43.2168 5.71662 44.5371 7.04749 46.6428C9.89371 51.1387 12.7452 55.6347 15.5914 60.1307C15.7785 60.4232 15.9577 60.721 16.1527 61.0399C15.7864 61.2771 15.5123 61.4589 15.2356 61.6328C10.7133 64.5001 6.18836 67.3674 1.66868 70.24C0.372068 71.0649 -0.104936 72.0848 0.227122 73.2733C0.585535 74.5594 1.51319 75.1945 3.06807 75.1998C4.97608 75.2077 6.88937 75.292 8.78685 75.1629C9.7593 75.097 10.8266 74.8361 11.6462 74.3301C16.7905 71.1571 21.8794 67.8919 26.9815 64.6504C27.2582 64.4764 27.5455 64.2972 27.7642 64.0627C28.2755 63.5119 28.3229 62.8688 27.8986 62.2601C27.4823 61.6618 26.884 61.4246 26.1751 61.7251H26.1804ZM18.7328 38.6655C19.8159 40.3706 20.8806 42.044 22.0217 43.844C21.2127 44.3605 20.4247 44.8639 19.5339 45.4331C18.4165 43.6674 17.3545 41.9834 16.2503 40.2388C17.0883 39.7091 17.8552 39.2215 18.7328 38.6681V38.6655ZM9.28757 44.6452C10.8055 43.6832 12.2155 42.7898 13.715 41.8385C14.0945 42.4156 14.4714 42.977 14.8324 43.5462C15.6626 44.8481 16.4664 46.1631 17.3149 47.4518C18.1477 48.7116 19.3574 48.9909 20.6382 48.2187C21.7898 47.523 22.9309 46.8062 24.0483 46.0577C25.3397 45.196 25.5927 43.9916 24.7625 42.6528C23.6241 40.8133 22.4539 38.9949 21.239 37.079C22.7122 36.1408 24.138 35.2342 25.6849 34.2512C28.8105 39.182 31.9097 44.0733 35.0722 49.0647C29.6169 52.5223 24.1986 55.9562 18.6748 59.4586C15.5545 54.5384 12.4527 49.6418 9.28493 44.6425L9.28757 44.6452Z" fill="#162854"/>
<path d="M45.2429 49.5522C45.1428 49.6576 45.0163 49.7551 44.8581 49.8526C42.2596 51.4602 39.6849 53.1073 37.1048 54.7413C35.3549 55.8481 33.5998 56.9444 31.8631 58.0724C31.0355 58.61 30.8405 59.477 31.3202 60.1939C31.7761 60.8764 32.5904 61.0293 33.4127 60.5786C33.6419 60.4521 33.8607 60.3046 34.0821 60.1622C37.8006 57.8036 41.5191 55.4475 45.2403 53.0915V49.5496L45.2429 49.5522Z" fill="#162854"/>
</g>
<defs>
<clipPath id="clip0_1245_103253">
<rect width="70.4253" height="75.0742" fill="white" transform="translate(0.117188 0.164062)"/>
</clipPath>
</defs>
</svg>
