<svg width="76" height="26" viewBox="0 0 76 26" fill="none" xmlns="http://www.w3.org/2000/svg">
<path d="M42.3394 17.3594H15.666V18.8413L42.3416 19.0531V17.3594H42.3394Z" fill="#D81159"/>
<path d="M42.3394 20.7461H15.666V22.0164H42.3416V20.7461H42.3394Z" fill="#D81159"/>
<path d="M34.7503 20.7467C27.5187 20.7467 20.2872 20.4698 13.0556 20.4698C12.935 20.4698 12.8088 20.4879 12.6937 20.4615C12.6091 20.4421 12.4982 20.3797 12.4663 20.3076C12.268 19.8597 12.0877 19.4048 11.8825 18.9029H15.6667V17.3594L4.0297 17.4308L4.01864 17.4272C3.34887 17.4268 4.01864 17.4274 2.47662 17.4302C2.47107 17.6438 2.37261 17.9044 2.22563 18.0556C1.50039 18.7989 0.744649 19.5116 0 20.2355V22.0007H4.80902C5.40252 23.8977 6.57565 25.0625 8.55722 25.1166C10.6664 25.1735 11.9102 23.9809 12.5342 22.052H34.7503V20.7467ZM4.80486 20.449H2.166C2.95641 19.2537 3.92293 18.516 5.44134 19.0096C5.24166 19.4617 5.02811 19.9429 4.80486 20.449ZM8.67786 23.5774C7.37438 23.5774 6.33991 22.5443 6.34407 21.245C6.34823 19.9581 7.42014 18.9015 8.70005 18.9209C9.96748 18.9389 11.0061 19.9803 11.0144 21.2408C11.0241 22.5263 9.97441 23.576 8.67648 23.576L8.67786 23.5774Z" fill="#D81159"/>
<rect x="2.36192" y="0.66856" width="39.3113" height="15.1763" stroke="#D81159" stroke-width="1.33712"/>
<g clip-path="url(#clip0_2957_61825)">
<path d="M74.1363 16.4817C74.1363 13.8631 74.1441 11.3112 74.1254 8.75925C74.1239 8.47381 74.0262 8.14493 73.8648 7.91068C72.5338 5.98393 71.1686 4.08201 69.836 2.15682C69.6002 1.81553 69.3505 1.68987 68.9347 1.69142C65.058 1.70848 61.1812 1.70073 57.3044 1.70228C57.1167 1.70228 56.9275 1.71934 56.6746 1.73175V16.5422H48.2695V18.2797H56.6482V19.9939H56.0401C53.4494 19.9939 50.8602 19.9939 48.2695 19.9939V21.764H56.7273C57.3696 23.8164 58.665 25.1118 60.8539 25.1893C63.2414 25.2747 64.6469 23.9343 65.3589 21.7268C65.6149 21.7268 65.8662 21.7268 66.116 21.7268C69.411 21.7206 72.7044 21.7128 75.9994 21.7051V16.4786H74.1363V16.4817ZM72.1382 8.50639C72.3647 9.06642 72.3787 9.71021 72.5074 10.413C71.2074 10.413 70.0687 10.413 68.9316 10.413C67.7945 10.413 66.6496 10.413 65.4411 10.413V6.92869H68.007C68.3949 6.92869 68.7935 6.98919 69.1674 6.91783C70.6039 6.64014 71.6061 7.19242 72.1382 8.50639ZM61.0354 23.472C59.5973 23.472 58.4385 22.3395 58.4292 20.9216C58.4198 19.4618 59.5585 18.2859 61.0028 18.2642C62.43 18.244 63.6416 19.4293 63.6525 20.8596C63.6649 22.293 62.4843 23.472 61.0354 23.472ZM61.9336 16.46V9.58146H60.1682C60.1682 9.85449 60.1682 10.1182 60.1682 10.3835C60.1682 12.2994 60.1604 14.2153 60.1744 16.1311C60.1775 16.4724 60.0937 16.6384 59.7369 16.7377C59.3165 16.8556 58.9256 17.0821 58.4788 17.2791V3.48165H60.1527V7.76175H61.8871V3.47079C62.1229 3.45993 62.3075 3.44597 62.4921 3.44442C64.3537 3.44287 66.2137 3.45683 68.0753 3.43356C68.4771 3.4289 68.7175 3.56077 68.9192 3.88965C69.1674 4.29609 69.4591 4.67617 69.8004 5.16639H63.7052V12.1318H72.3725V16.4585H61.9336V16.46ZM74.2185 19.9396H65.3512C65.0936 19.3595 64.8625 18.8382 64.6158 18.2782H74.2185V19.9396Z" fill="#162854"/>
</g>
<defs>
<clipPath id="clip0_2957_61825">
<rect width="27.7299" height="23.5041" fill="white" transform="translate(48.2695 1.69141)"/>
</clipPath>
</defs>
</svg>
