<svg width="60" height="40" viewBox="0 0 60 40" fill="none" xmlns="http://www.w3.org/2000/svg">
<path d="M60 35.5789C56.6812 35.5867 53.3641 35.593 50.0453 35.6008C49.7922 35.6008 49.5406 35.6008 49.2828 35.6008C48.5656 37.8242 47.15 39.1742 44.7453 39.0883C42.5406 39.0102 41.2359 37.7055 40.5891 35.6383H14.1234C13.4203 37.8102 12.0203 39.1555 9.64219 39.0914C7.41094 39.0305 6.08906 37.7195 5.41875 35.5805H0C0 34.918 0 34.2539 0 33.5914C0.839062 32.7758 1.69062 31.9727 2.50781 31.1352C2.67344 30.9649 2.78594 30.6711 2.79063 30.4305C2.81875 29.2633 2.80312 31.601 2.80312 30.3839H4.54062V30.3211H17.6531V32.0883H13.3891C13.6203 32.6539 13.8234 33.168 14.0469 33.6711C14.0828 33.7524 14.2078 33.8227 14.3031 33.8445C14.4328 33.8742 14.575 33.8539 14.7109 33.8539C23.1062 33.8539 31.5016 33.8539 39.8969 33.8539H40.5094V32.1274H19.4922V30.3774H40.5359V15.4586C40.7922 15.4461 40.9812 15.4289 41.1703 15.4289C45.075 15.4274 48.9797 15.4352 52.8844 15.418C53.3031 15.4164 53.5531 15.543 53.7906 15.8852C55.1328 17.8242 56.5078 19.7399 57.8484 21.6805C58.0109 21.9164 58.1078 22.2477 58.1109 22.5352C58.1312 25.1055 58.1219 27.6758 58.1219 30.3133H59.9984V35.5774L60 35.5789ZM56.3469 25.9336H47.6172V18.918H53.7563C53.4125 18.4258 53.1203 18.0414 52.8687 17.632C52.6656 17.3008 52.4234 17.1664 52.0188 17.1727C50.1453 17.1961 48.2703 17.182 46.3953 17.1836C46.2094 17.1836 46.025 17.1992 45.7859 17.2102V21.532H44.0391V17.2211H42.3531V31.118C42.8031 30.918 43.1953 30.6899 43.6203 30.5727C43.9781 30.4727 44.0625 30.3039 44.0609 29.9617C44.0469 28.032 44.0547 26.1024 44.0547 24.1727C44.0547 23.907 44.0547 23.6399 44.0547 23.3649H45.8328V30.2914H56.3469V25.9336ZM49.3656 24.2024C50.5828 24.2024 51.7328 24.2024 52.8813 24.2024C54.0297 24.2024 55.1719 24.2024 56.4828 24.2024C56.3531 23.4945 56.3391 22.8445 56.1109 22.282C55.575 20.9586 54.5672 20.4039 53.1187 20.682C52.7422 20.7539 52.3406 20.693 51.95 20.693H49.3656V24.2024ZM9.77812 37.3539C11.2391 37.3539 12.4234 36.1711 12.4125 34.7227C12.4016 33.3024 11.2312 32.1289 9.80469 32.1086C8.36094 32.0867 7.15469 33.2774 7.15 34.7274C7.14531 36.1914 8.31094 37.3555 9.77969 37.3555L9.77812 37.3539ZM44.9266 37.3539C46.3859 37.3539 47.5734 36.1649 47.5625 34.7227C47.55 33.282 46.3312 32.0883 44.8937 32.1086C43.4391 32.1305 42.2922 33.3133 42.3016 34.7852C42.3109 36.2133 43.4781 37.3555 44.9266 37.3539ZM49.2734 33.7977H58.2047V32.1242H48.5328C48.7828 32.6883 49.0156 33.2133 49.2734 33.7977ZM6.13281 32.207C4.42187 31.6508 3.33125 32.482 2.44219 33.8289H5.41562C5.66875 33.2586 5.90781 32.7164 6.13281 32.207Z" fill="#162854"/>
<path d="M23.1732 1.00032C23.4201 0.992054 23.5573 1.14275 23.6506 1.36879M23.1732 1.00032L24.2505 5.38062C24.1505 5.36712 24.0426 5.40283 23.9346 5.44838L23.6735 5.42118C23.6697 5.42078 23.6659 5.42039 23.6621 5.41999C23.6616 5.41994 23.6612 5.4199 23.6608 5.41985C23.6404 5.41773 23.6203 5.41564 23.6004 5.41356C23.6153 5.40175 23.6297 5.38929 23.6436 5.37615C23.644 5.37576 23.6444 5.37538 23.6448 5.37499C23.6525 5.36769 23.66 5.36018 23.6673 5.35247M23.1732 1.00032C22.9135 1.00951 22.7672 1.16021 22.7059 1.42117L22.5165 1.37572C22.5165 1.37584 22.5165 1.37595 22.5164 1.37606M23.1732 1.00032L24.7469 5.92937M23.6506 1.36879C23.7091 1.5103 23.8051 1.661 23.9277 1.74554C24.715 2.29411 24.7397 3.46108 23.9386 3.98668C23.7073 4.1383 23.6387 4.29359 23.6643 4.53893C23.6738 4.6357 23.6694 4.73496 23.665 4.83277C23.6648 4.83805 23.6645 4.84332 23.6643 4.84859C23.6506 5.1367 23.5092 5.31192 23.2229 5.37425C23.3207 5.38441 23.4162 5.39436 23.5151 5.40467C23.5309 5.40632 23.5469 5.40799 23.563 5.40966C23.5835 5.39216 23.6086 5.37567 23.6387 5.36381L23.6403 5.3632C23.6492 5.35979 23.6582 5.35621 23.6673 5.35247M23.6506 1.36879L23.8306 1.29434C23.8306 1.29439 23.8306 1.29444 23.8307 1.29449M23.6506 1.36879L23.8307 1.29449M23.6673 5.35247C23.6979 5.33996 23.7301 5.32562 23.766 5.30961L23.7689 5.3083C23.813 5.28862 23.8625 5.26649 23.9127 5.24708C24.0114 5.20885 24.1407 5.16923 24.2766 5.18757L24.2768 5.1876C24.6395 5.23705 24.8436 5.59113 24.7469 5.92937M23.6673 5.35247C23.6766 5.34278 23.6855 5.33275 23.6942 5.32239C23.8022 5.19342 23.8506 5.03234 23.8589 4.85781L23.8589 4.85724C23.8592 4.85101 23.8595 4.8447 23.8598 4.83831C23.8641 4.74334 23.8691 4.63103 23.8582 4.51981L23.8581 4.51871C23.8475 4.41784 23.8586 4.35752 23.8804 4.31262C23.9026 4.26686 23.947 4.21412 24.0454 4.14962L24.0455 4.14956C24.9713 3.54215 24.9302 2.20659 24.039 1.5857L24.0383 1.58519C23.9594 1.53076 23.8821 1.41891 23.8307 1.29449M24.7469 5.92937C24.7094 6.06146 24.7339 6.11526 24.7596 6.15053C24.8005 6.20672 24.8738 6.25511 25.0076 6.33776L25.0077 6.33778C26.3199 7.14878 27.6301 7.96157 28.9401 8.77424C30.7335 9.8868 32.5266 10.9991 34.324 12.1064C34.503 12.2165 34.6444 12.3452 34.7384 12.5115C34.8327 12.6781 34.8698 12.8655 34.8693 13.0767V13.0768C34.862 15.6369 34.8624 18.1968 34.8628 20.757C34.863 21.717 34.8632 22.6769 34.8629 23.6369L24.7469 5.92937ZM24.7469 5.92937C24.7469 5.9294 24.7469 5.92944 24.7469 5.92947L24.5596 5.8759L24.7469 5.92918C24.7469 5.92924 24.7469 5.92931 24.7469 5.92937ZM23.8307 1.29449C23.7781 1.1671 23.7055 1.04103 23.5952 0.947883C23.4796 0.850153 23.3357 0.799967 23.1667 0.805628L23.1663 0.805641C22.9979 0.811601 22.849 0.865152 22.7324 0.973785C22.6188 1.07958 22.5527 1.22189 22.5164 1.37606M22.5164 1.37606C22.5029 1.43185 22.4524 1.50379 22.4065 1.5337M22.5164 1.37606L22.4065 1.5337M22.4065 1.5337C21.8998 1.8635 21.6341 2.36547 21.633 2.87754C21.632 3.38996 21.8961 3.89158 22.4047 4.21935M22.4065 1.5337L22.3895 4.4326C22.4542 4.3921 22.4917 4.35914 22.5117 4.3354C22.5169 4.32913 22.5204 4.32425 22.5226 4.32072M22.4047 4.21935C22.4047 4.21933 22.4047 4.21931 22.4046 4.21929L22.5102 4.0556L22.4047 4.21935ZM22.4047 4.21935C22.4662 4.25906 22.4997 4.29048 22.5161 4.31162C22.519 4.31531 22.521 4.31833 22.5226 4.32072M22.5226 4.32072C22.5246 4.32389 22.5255 4.32595 22.526 4.32696M22.5226 4.32072C22.5255 4.31597 22.5262 4.31365 22.5262 4.31362C22.5262 4.3136 22.5254 4.31563 22.5253 4.31959C22.5252 4.3233 22.5256 4.3258 22.526 4.32696M22.526 4.32696C22.5262 4.32747 22.5262 4.32771 22.5262 4.32771L22.526 4.32696ZM11.4927 13.088L11.4927 13.0877C11.4922 12.8766 11.5268 12.6887 11.6183 12.5213C11.7101 12.3535 11.8495 12.2238 12.0285 12.113L12.0287 12.1129C13.7833 11.0305 15.5346 9.94439 17.2861 8.85812C18.6772 7.99542 20.0683 7.13264 21.4613 6.27163C21.552 6.21555 21.5856 6.1798 21.6013 6.1511L11.4927 13.088ZM11.4927 13.088C11.5025 15.7869 11.5016 18.4852 11.5006 21.1842C11.5003 21.9941 11.5 22.804 11.5 23.614C11.5 23.7766 11.5079 23.9202 11.5341 24.042C11.5608 24.166 11.6092 24.2803 11.6995 24.3709C11.7898 24.4615 11.9039 24.5102 12.0277 24.5371C12.1493 24.5635 12.2926 24.5714 12.4547 24.5714H12.4967H12.5386H12.5805H12.6224H12.6643H12.7062H12.7481H12.79H12.832H12.8739H12.9158H12.9577H12.9996H13.0415H13.0834H13.1253H13.1673H13.2092H13.2511H13.293H13.3349H13.3768H13.4187H13.4606H13.5025H13.5445H13.5864H13.6283H13.6702H13.7121H13.754H13.7959H13.8379H13.8798H13.9217H13.9636H14.0055H14.0474H14.0893H14.1312H14.1732H14.2151H14.257H14.2989H14.3408H14.3827H14.4246H14.4665H14.5085H14.5504H14.5923H14.6342H14.6761H14.718H14.7599H14.8018H14.8438H14.8857H14.9276H14.9695H15.0114H15.0533H15.0952H15.1372H15.1791H15.221H15.2629H15.3048H15.3467H15.3886H15.4305H15.4725H15.5144H15.5563H15.5982H15.6401H15.682H15.7239H15.7659H15.8078H15.8497H15.8916H15.9335H15.9754H16.0173H16.0592H16.1012H16.1431H16.185H16.2269H16.2688H16.3107H16.3526H16.3946H16.4365H16.4784H16.5203H16.5622H16.6041H16.646H16.688H16.7299H16.7718H16.8137H16.8556H16.8975H16.9394H16.9813H17.0233H17.0652H17.1071H17.149H17.1909H17.2328H17.2747H17.3167H17.3586H17.4005H17.4424H17.4843H17.5262H17.5681H17.6101H17.652H17.6939H17.7358H17.7777H17.8196H17.8615H17.9035H17.9454H17.9873H18.0292H18.0711H18.113H18.1549H18.1969H18.2388H18.2807H18.3226H18.3645H18.4064H18.4483H18.4903H18.5322H18.5741H18.616H18.6579H18.6998H18.7418H18.7837H18.8256H18.8675H18.9094H18.9513H18.9932H19.0352H19.0771H19.119H19.1609H19.2028H19.2447H19.2866H19.3286H19.3705H19.4124H19.4543H19.4962H19.5381H19.58H19.622H19.6639H19.7058H19.7477H19.7896H19.8315H19.8735H19.9154H19.9573H19.9992H20.0411H20.083H20.1249H20.1669H20.2088H20.2507H20.2926H20.3345H20.3764H20.4183H20.4603H20.5022H20.5441H20.586H20.6279H20.6698H20.7118H20.7537H20.7956H20.8375H20.8794H20.9213H20.9632H21.0052H21.0471H21.089H21.1309H21.1728H21.2147H21.2567H21.2986H21.3405H21.3824H21.4243H21.4662H21.5081H21.5501H21.592H21.6339H21.6758H21.7177H21.7596H21.8016H21.8435H21.8854H21.9273H21.9692H22.0111H22.0531H22.095H22.1369H22.1788H22.2207H22.2626H22.3045H22.3465H22.3884H22.4303H22.4722H22.5141H22.556H22.598H22.6399H22.6818H22.7237H22.7656H22.8075H22.8495H22.8914H22.9333H22.9752H23.0171H23.059H23.1009H23.1429H23.1848H23.2267H23.2686H23.3105H23.3524H23.3944H23.4363H23.4782H23.5201H23.562H23.6039H23.6459H23.6878H23.7297H23.7716H23.8135H23.8554H23.8974H23.9393H23.9812H24.0231H24.065H24.1069H24.1488H24.1908H24.2327H24.2746H24.3165H24.3584H24.4003H24.4423H24.4842H24.5261H24.568H24.6099H24.6518H24.6938H24.7357H24.7776H24.8195H24.8614H24.9033H24.9453H24.9872H25.0291H25.071H25.1129H25.1548H25.1968H25.2387H25.2806H25.3225H25.3644H25.4063H25.4483H25.4902H25.5321H25.574H25.6159H25.6578H25.6998H25.7417H25.7836H25.8255H25.8674H25.9093H25.9513H25.9932H26.0351H26.077H26.1189H26.1608H26.2028H26.2447H26.2866H26.3285H26.3704H26.4123H26.4543H26.4962H26.5381H26.58H26.6219H26.6638H26.7058H26.7477H26.7896H26.8315H26.8734H26.9153H26.9573H26.9992H27.0411H27.083H27.1249H27.1668H27.2088H27.2507H27.2926H27.3345H27.3764H27.4183H27.4603H27.5022H27.5441H27.586H27.6279H27.6698H27.7118H27.7537H27.7956H27.8375H27.8794H27.9213H27.9633H28.0052H28.0471H28.089H28.1309H28.1728H28.2148H28.2567H28.2986H28.3405H28.3824H28.4243H28.4663H28.5082H28.5501H28.592H28.6339H28.6758H28.7178H28.7597H28.8016H28.8435H28.8854H28.9273H28.9693H29.0112H29.0531H29.095H29.1369H29.1789H29.2208H29.2627H29.3046H29.3465H29.3884H29.4304H29.4723H29.5142H29.5561H29.598H29.6399H29.6819H29.7238H29.7657H29.8076H29.8495H29.8914H29.9334H29.9753H30.0172H30.0591H30.101H30.1429H30.1849H30.2268H30.2687H30.3106H30.3525H30.3944H30.4364H30.4783H30.5202H30.5621H30.604H30.646H30.6879H30.7298H30.7717H30.8136H30.8555H30.8975H30.9394H30.9813H31.0232H31.0651H31.107H31.149H31.1909H31.2328H31.2747H31.3166H31.3585H31.4005H31.4424H31.4843H31.5262H31.5681H31.61H31.652H31.6939H31.7358H31.7777H31.8196H31.8616H31.9035H31.9454H31.9873H32.0292H32.0711H32.1131H32.155H32.1969H32.2388H32.2807H32.3226H32.3646H32.4065H32.4484H32.4903H32.5322H32.5741H32.6161H32.658H32.6999H32.7418H32.7837H32.8256H32.8676H32.9095H32.9514H32.9933H33.0352H33.0772H33.1191H33.161H33.2029H33.2448H33.2867H33.3287H33.3706H33.4125H33.4544H33.4963H33.5382H33.5802H33.6221H33.664H33.7059H33.7478H33.7897H33.8317H33.8736H33.9155C34.2171 24.5714 34.485 24.5445 34.6594 24.3732M11.4927 13.088L34.6594 24.3732M31.7905 12.1335C29.1889 10.5178 26.5874 8.90273 23.9809 7.296C23.9815 7.29637 23.9818 7.29655 23.9818 7.29659C23.9817 7.2969 23.9662 7.29111 23.9152 7.29272C23.8902 7.2935 23.8641 7.29559 23.8324 7.29813L23.8243 7.29877L31.7905 12.1335ZM31.7905 12.1335H14.5731M31.7905 12.1335H14.5731M14.5731 12.1335C14.733 12.0326 14.8858 11.9366 15.0392 11.8414L15.0394 11.8414C15.7039 11.4286 16.3686 11.016 17.0334 10.6034C18.7734 9.52327 20.5137 8.44297 22.252 7.35983L22.2523 7.35969C22.326 7.31361 22.3846 7.29254 22.4417 7.28446C22.5008 7.27611 22.5712 7.27982 22.6719 7.3007L22.672 7.30073C22.8562 7.3388 23.0418 7.33878 23.2147 7.33074C23.2856 7.32744 23.3515 7.32308 23.4152 7.31887C23.5162 7.31219 23.6117 7.30587 23.7127 7.30475C23.7128 7.30475 23.713 7.30475 23.7131 7.30475L14.5731 12.1335ZM23.3596 2.85031L23.3597 2.84981C23.3697 2.79057 23.3533 2.75958 23.3354 2.74138C23.314 2.71957 23.2671 2.69329 23.1829 2.6929C23.0997 2.69298 23.0496 2.71852 23.0255 2.74169C23.0057 2.76084 22.9894 2.79089 22.9975 2.84687L23.3596 2.85031ZM23.3596 2.85031C23.3549 2.87883 23.3345 2.9202 23.2807 2.9888C23.2613 3.01351 23.2413 3.03733 23.2189 3.06393C23.2112 3.07313 23.2032 3.08266 23.1948 3.09268C23.1894 3.09916 23.1839 3.1058 23.1783 3.11259L23.3596 2.85031ZM34.6594 24.3732C34.8351 24.2006 34.8629 23.9344 34.8629 23.637L34.6594 24.3732ZM23.2595 5.56564C23.3477 5.54685 23.4298 5.5181 23.5034 5.47769C23.5001 5.48272 23.4974 5.48722 23.4951 5.491C23.4849 5.50808 23.475 5.52806 23.468 5.54854C23.4662 5.5539 23.4634 5.56275 23.4611 5.57365L23.461 5.57385C23.4607 5.5752 23.4589 5.58281 23.4577 5.59455C23.3826 5.58673 23.3092 5.57907 23.2347 5.57133C23.243 5.56929 23.2512 5.56741 23.2593 5.56568L23.2595 5.56564ZM21.7618 5.08057C21.6233 5.34492 21.5716 5.64648 21.6147 5.97816L22.3894 4.43265C22.1173 4.60298 21.8996 4.81775 21.7618 5.08057ZM12.8718 13.5302H33.4893V23.2023H12.8718V13.5302ZM23.1764 3.26963L23.2592 3.32693L23.2558 3.2158L23.1764 3.26963Z" fill="#D81159" stroke="#D81159" stroke-width="0.38961"/>
</svg>
