<svg width="67" height="25" viewBox="0 0 67 25" fill="none" xmlns="http://www.w3.org/2000/svg">
<path d="M31.6018 19.5044C25.0255 19.5044 18.4491 19.5044 11.8727 19.5044C11.763 19.5044 11.6483 19.5208 11.5436 19.4968C11.4667 19.4792 11.3658 19.4224 11.3368 19.3569C11.1565 18.9496 10.9925 18.5359 10.8059 18.0794H14.2473V16.6758L3.6646 16.7407L3.65454 16.7374C3.04545 16.7371 3.65454 16.7376 2.25223 16.7402C2.24718 16.9344 2.15765 17.1715 2.02398 17.3089C1.36445 17.9848 0.677182 18.633 0 19.2913V20.8966H4.37331C4.91303 22.6217 5.97988 23.681 7.78191 23.7302C9.69996 23.7819 10.8311 22.6974 11.3986 20.9433H31.6018V19.5044ZM4.36952 19.4855H1.96975C2.68855 18.3985 3.5675 17.7276 4.94834 18.1765C4.76675 18.5876 4.57255 19.0252 4.36952 19.4855ZM7.89163 22.3304C6.70624 22.3304 5.7655 21.391 5.76928 20.2093C5.77307 19.0391 6.74786 18.0782 7.9118 18.0958C9.0644 18.1122 10.0089 19.0593 10.0165 20.2056C10.0253 21.3746 9.0707 22.3292 7.89036 22.3292L7.89163 22.3304Z" fill="#02B47E"/>
<path d="M40.801 16.6758H15.6016V18.2759H40.803V16.6758H40.801Z" fill="#02B47E"/>
<path d="M38.3646 19.4727H15.6016V21.0727H38.3666L38.5874 19.4727H38.3646Z" fill="#02B47E"/>
<rect x="3.07735" y="0.950401" width="41.0485" height="14.247" stroke="#02B47E" stroke-width="1.35393"/>
<g clip-path="url(#clip0_2957_61804)">
<path d="M65.2401 16.2465C65.2401 13.7725 65.2474 11.3616 65.2299 8.95071C65.2284 8.68104 65.1361 8.37034 64.9836 8.14903C63.7261 6.32876 62.4364 4.53194 61.1775 2.71313C60.9547 2.3907 60.7187 2.27199 60.326 2.27345C56.6634 2.28957 53.0009 2.28224 49.3384 2.28371C49.161 2.28371 48.9822 2.29983 48.7433 2.31156V16.3036H40.8027V17.9451H48.7184V19.5646H48.1439C45.6964 19.5646 46.3017 19.5133 43.8541 19.5133V21.2368H48.7932C49.3999 23.1758 50.6237 24.3996 52.6917 24.4729C54.9472 24.5535 56.275 23.2872 56.9478 21.2016C57.1896 21.2016 57.427 21.2016 57.663 21.2016C60.7759 21.1958 63.8874 21.1885 67.0003 21.1811V16.2435H65.2401V16.2465ZM63.3524 8.71182C63.5664 9.2409 63.5796 9.84912 63.7012 10.513C62.4731 10.513 61.3973 10.513 60.323 10.513C59.2487 10.513 58.1671 10.513 57.0254 10.513V7.22131H59.4495C59.8159 7.22131 60.1926 7.27847 60.5458 7.21105C61.9029 6.94871 62.8497 7.47046 63.3524 8.71182ZM52.8631 22.8504C51.5045 22.8504 50.4097 21.7806 50.4009 20.441C50.3921 19.0619 51.4679 17.9509 52.8324 17.9304C54.1807 17.9114 55.3253 19.0311 55.3356 20.3824C55.3473 21.7366 54.232 22.8504 52.8631 22.8504ZM53.7117 16.2259V9.72748H52.0439C52.0439 9.98542 52.0439 10.2346 52.0439 10.4852C52.0439 12.2952 52.0365 14.1052 52.0497 15.9152C52.0527 16.2377 51.9735 16.3945 51.6364 16.4883C51.2393 16.5997 50.8699 16.8136 50.4478 16.9998V3.96475H52.0292V8.00833H53.6678V3.95449C53.8905 3.94423 54.0649 3.93104 54.2393 3.92958C55.9981 3.92811 57.7553 3.9413 59.514 3.91932C59.8936 3.91492 60.1208 4.0395 60.3113 4.3502C60.5458 4.73419 60.8213 5.09326 61.1438 5.55639H55.3854V12.1369H63.5737V16.2245H53.7117V16.2259ZM65.3178 19.5133H56.9404C56.6971 18.9651 56.4788 18.4727 56.2457 17.9436H65.3178V19.5133Z" fill="#162854"/>
</g>
<circle cx="41.4014" cy="20.4737" r="3.52328" stroke="#162854" stroke-width="1.35393"/>
<defs>
<clipPath id="clip0_2957_61804">
<rect width="26.1976" height="22.2053" fill="white" transform="translate(40.8027 2.27344)"/>
</clipPath>
</defs>
</svg>
