<svg width="15" height="16" viewBox="0 0 15 16" fill="none" xmlns="http://www.w3.org/2000/svg">
<path d="M6.78178 0C7.24998 0 7.62951 0.379542 7.62951 0.847723C7.62951 1.28246 7.30226 1.64077 6.88065 1.68974L6.78178 1.69545H2.54317C2.10843 1.69545 1.75012 2.0227 1.70115 2.44431L1.69545 2.54317V12.7158C1.69545 13.1506 2.0227 13.5089 2.44431 13.5579L2.54317 13.5636H6.35792C6.82612 13.5636 7.20564 13.9431 7.20564 14.4113C7.20564 14.846 6.8784 15.2043 6.45679 15.2533L6.35792 15.259H2.54317C1.18878 15.259 0.081669 14.2003 0.00431713 12.8653L0 12.7158V2.54317C0 1.18878 1.05874 0.081669 2.39374 0.00431713L2.54317 0H6.78178ZM11.6197 4.63236L14.0175 7.03008C14.3486 7.36112 14.3486 7.89789 14.0175 8.22893L11.6197 10.6266C11.2887 10.9578 10.752 10.9578 10.4209 10.6266C10.0899 10.2956 10.0899 9.75882 10.4209 9.42778L11.3715 8.47723H6.78178C6.31359 8.47723 5.93406 8.0977 5.93406 7.62951C5.93406 7.16131 6.31359 6.78178 6.78178 6.78178H11.3715L10.4209 5.83121C10.0899 5.50016 10.0899 4.96341 10.4209 4.63236C10.752 4.30129 11.2887 4.30129 11.6197 4.63236Z" fill="#22315F"/>
</svg>
