<svg width="58" height="35" viewBox="0 0 58 35" fill="none" xmlns="http://www.w3.org/2000/svg">
<path d="M58 31.4108C54.7919 31.4183 51.5853 31.4244 48.3771 31.4319C48.1324 31.4319 47.8893 31.4319 47.64 31.4319C46.9468 33.5813 45.5783 34.8863 43.2538 34.8032C41.1226 34.7277 39.8614 33.4665 39.2361 31.4682H13.6527C12.973 33.5677 11.6196 34.8681 9.32078 34.8062C7.16391 34.7473 5.88609 33.4801 5.23812 31.4123H0C0 30.7719 0 30.13 0 29.4895C0.811094 28.7011 1.63427 27.9248 2.42422 27.1152C2.58432 26.9505 2.69307 26.6666 2.6976 26.434C2.72479 25.3057 2.70969 27.5655 2.70969 26.3889H4.38927V26.3282H17.0647V28.0365H12.9428C13.1663 28.5833 13.3627 29.0802 13.5786 29.5666C13.6134 29.6451 13.7342 29.7131 13.8264 29.7342C13.9517 29.7629 14.0892 29.7433 14.2206 29.7433C22.336 29.7433 30.4515 29.7433 38.567 29.7433H39.1591V28.0743H18.8424V26.3826H39.1847V11.9612C39.4324 11.9491 39.6152 11.9325 39.798 11.9325C43.5725 11.931 47.347 11.9385 51.1216 11.9219C51.5264 11.9204 51.768 12.0427 51.9976 12.3735C53.2951 14.2479 54.6242 16.0997 55.9202 17.9756C56.0772 18.2037 56.1709 18.5239 56.1739 18.8018C56.1935 21.2865 56.1845 23.7711 56.1845 26.3207H57.9985V31.4093L58 31.4108ZM54.4686 22.087H46.0299V15.3052H51.9644C51.6321 14.8294 51.3496 14.4579 51.1064 14.0621C50.9101 13.7419 50.676 13.612 50.2848 13.6181C48.4738 13.6407 46.6613 13.6271 44.8488 13.6287C44.6691 13.6287 44.4908 13.6438 44.2597 13.6543V17.8321H42.5711V13.6649H40.9414V27.0986C41.3764 26.9052 41.7555 26.6847 42.1663 26.5714C42.5122 26.4748 42.5937 26.3116 42.5922 25.9808C42.5786 24.1155 42.5862 22.2501 42.5862 20.3848C42.5862 20.128 42.5862 19.8697 42.5862 19.6039H44.305V26.2995H54.4686V22.087ZM47.7201 20.4135C48.8967 20.4135 50.0084 20.4135 51.1185 20.4135C52.2287 20.4135 53.3328 20.4135 54.6 20.4135C54.4747 19.7292 54.4611 19.1009 54.2406 18.5571C53.7225 17.2778 52.7483 16.7416 51.3481 17.0105C50.9841 17.08 50.5959 17.0211 50.2183 17.0211H47.7201V20.4135ZM9.45219 33.1266C10.8644 33.1266 12.0093 31.9832 11.9987 30.5831C11.9882 29.2101 10.8569 28.0758 9.47786 28.0562C8.08224 28.035 6.9162 29.186 6.91167 30.5876C6.90713 32.0029 8.03391 33.1281 9.4537 33.1281L9.45219 33.1266ZM43.429 33.1266C44.8397 33.1266 45.9877 31.9772 45.9771 30.5831C45.965 29.1905 44.7869 28.0365 43.3973 28.0562C41.9911 28.0773 40.8824 29.2207 40.8915 30.6435C40.9006 32.024 42.0289 33.1281 43.429 33.1266ZM47.631 29.6889H56.2645V28.0713H46.915C47.1567 28.6165 47.3818 29.124 47.631 29.6889ZM5.92838 28.1513C4.27448 27.6136 3.22021 28.4172 2.36078 29.7191H5.2351C5.47979 29.1678 5.71089 28.6437 5.92838 28.1513Z" fill="#162854"/>
<path d="M24.5079 5.29218C24.8226 5.32443 25.0571 5.34885 25.3431 5.37849C25.3343 5.38982 25.357 5.32792 25.3971 5.31223C25.5662 5.24772 25.7502 5.13438 25.9123 5.15618C26.1373 5.18669 26.2706 5.40464 26.207 5.62608C26.1111 5.96172 26.3012 6.0768 26.5365 6.22152C29.4989 8.04358 32.4535 9.87697 35.4184 11.6947C35.7244 11.8821 35.8509 12.1009 35.85 12.4575C35.8404 15.7974 35.8448 19.1372 35.8439 22.4771C35.8439 23.0525 35.714 23.1789 35.1264 23.1789C28.3063 23.1789 21.4862 23.1789 14.667 23.1789C14.0637 23.1789 13.9425 23.0577 13.9425 22.4553C13.9425 19.1259 13.9478 15.7974 13.9356 12.468C13.9347 12.1079 14.0541 11.8882 14.3584 11.7008C17.3591 9.85866 20.352 8.00348 23.351 6.15875C23.5393 6.0428 23.6151 5.93993 23.5838 5.69931C23.5105 5.13874 23.7607 4.70982 24.2367 4.4134C24.5192 4.2373 24.5262 4.07427 24.2533 3.89904C23.3832 3.34109 23.3876 2.22344 24.2559 1.66113C24.3405 1.60621 24.4163 1.49723 24.4399 1.39959C24.4983 1.152 24.6378 1.00903 24.8854 1.00031C25.1207 0.992461 25.2515 1.13544 25.3404 1.3499C25.3962 1.48416 25.4878 1.62713 25.6046 1.70734C26.3552 2.2278 26.3788 3.33499 25.6151 3.83366C25.3945 3.9775 25.3291 4.12484 25.3535 4.35761C25.3631 4.45438 25.3579 4.55376 25.3535 4.65141C25.3404 4.92602 25.2044 5.09254 24.9289 5.15095C24.8008 5.17797 24.6787 5.23377 24.5079 5.29218ZM34.9058 22.2496V12.7033H14.8788V22.2496H34.9058ZM33.7045 11.7487C33.6365 11.6894 33.6103 11.6607 33.5781 11.6406C30.9714 10.0295 28.3647 8.41845 25.7528 6.81608C25.6639 6.76116 25.5174 6.79603 25.398 6.7969C25.0789 6.80039 24.7502 6.85967 24.4451 6.7969C24.2298 6.75244 24.0842 6.76814 23.9089 6.87711C21.6187 8.29727 19.325 9.7122 17.0331 11.1289C16.7236 11.3198 16.4158 11.5151 16.0444 11.7479H33.7054L33.7045 11.7487ZM24.8104 3.20596C24.8627 3.20596 24.915 3.20683 24.9673 3.2077C25.0649 3.06734 25.221 2.93745 25.2463 2.78575C25.2829 2.56955 25.1303 2.42221 24.8949 2.42134C24.663 2.42134 24.5026 2.56344 24.534 2.77878C24.5567 2.93134 24.7136 3.06386 24.8104 3.20596Z" fill="#02B47E" stroke="#02B47E" stroke-width="0.376623"/>
</svg>
