<svg width="20" height="20" viewBox="0 0 20 20" fill="none" xmlns="http://www.w3.org/2000/svg">
<g clip-path="url(#clip0_2957_56145)">
<path d="M9.47228 1.43359C6.70138 1.43359 4.5575 3.86214 4.90119 6.61165L4.96595 7.12971C5.0607 7.88777 4.7838 8.64496 4.22236 9.16305C3.05895 10.2366 2.73572 11.9454 3.42662 13.3697L3.51096 13.5436C4.15495 14.8712 5.50084 15.7142 6.97642 15.7142H13.6849C14.9577 15.7142 16.1423 15.064 16.8257 13.9902C17.7903 12.4745 17.5348 10.4861 16.2183 9.26344L16.1825 9.23018C15.9103 8.97736 15.7005 8.67246 15.5617 8.3388C15.505 8.20252 15.4601 8.06146 15.4277 7.91724C15.3535 7.58747 15.026 7.38027 14.6962 7.45445C14.3665 7.52864 14.1593 7.85611 14.2334 8.18588C14.2814 8.39911 14.3477 8.60761 14.4316 8.80904C14.6368 9.30234 14.9471 9.75334 15.3495 10.1271L15.3854 10.1604C16.269 10.981 16.4405 12.3157 15.793 13.333C15.3343 14.0537 14.5392 14.4902 13.6849 14.4902H6.97642C5.96978 14.4902 5.05162 13.9151 4.61229 13.0094L4.52795 12.8355C4.07254 11.8966 4.2856 10.7703 5.05247 10.0626C5.90422 9.27664 6.32431 8.12792 6.18055 6.97788L6.11579 6.45982C5.86343 4.4409 7.43765 2.65765 9.47228 2.65765H10.8619C11.4635 2.65765 12.0225 2.8126 12.5065 3.08211C12.8018 3.24656 13.1746 3.14047 13.339 2.84515C13.5035 2.54984 13.3974 2.17713 13.102 2.01268C12.4405 1.64431 11.6771 1.43359 10.8619 1.43359H9.47228Z" fill="#162854"/>
<path d="M8.39774 17.1831C8.19493 16.9127 7.81131 16.8579 7.5409 17.0607C7.27049 17.2635 7.21569 17.6471 7.4185 17.9175L7.66331 18.244C9.00977 20.0392 11.7027 20.0392 13.0492 18.244L13.294 17.9175C13.4968 17.6471 13.442 17.2635 13.1716 17.0607C12.9011 16.8579 12.5175 16.9127 12.3147 17.1831L12.0699 17.5095C11.2131 18.652 9.49939 18.652 8.64255 17.5095L8.39774 17.1831Z" fill="#162854"/>
<path d="M16.0685 5.30977C16.0685 6.21114 15.3378 6.94185 14.4365 6.94185C13.5351 6.94185 12.8044 6.21114 12.8044 5.30977C12.8044 4.4084 13.5351 3.6777 14.4365 3.6777C15.3378 3.6777 16.0685 4.4084 16.0685 5.30977Z" fill="#162854"/>
</g>
<defs>
<clipPath id="clip0_2957_56145">
<rect width="19.5849" height="19.5849" fill="white" transform="translate(0.414062 0.414062)"/>
</clipPath>
</defs>
</svg>
