<svg width="178" height="77" viewBox="0 0 178 77" fill="none" xmlns="http://www.w3.org/2000/svg">
<path d="M177.519 68.4832C169.926 68.501 162.336 68.5153 154.742 68.5332C154.163 68.5332 153.587 68.5332 152.997 68.5332C151.356 73.6206 148.117 76.7095 142.615 76.5129C137.571 76.3341 134.586 73.3489 133.105 68.619H72.5499C70.9411 73.5884 67.7378 76.6666 62.2965 76.52C57.1912 76.3806 54.1666 73.3811 52.6329 68.4867H40.2344C40.2344 66.9709 40.2344 65.4515 40.2344 63.9356C42.1542 62.0694 44.1027 60.2318 45.9725 58.3155C46.3514 57.9258 46.6088 57.2537 46.6196 56.7031C46.6839 54.0325 46.6482 59.3814 46.6482 56.5964H50.6237V56.4529H80.6262V60.4963H70.8696C71.3988 61.7905 71.8635 62.9667 72.3748 64.1179C72.457 64.3038 72.743 64.4647 72.9611 64.5148C73.2578 64.5827 73.5832 64.5362 73.8942 64.5362C93.1033 64.5362 112.312 64.5362 131.522 64.5362H132.923V60.5857H84.8341V56.5816H132.984V22.4463C133.57 22.4177 134.003 22.3783 134.435 22.3783C143.37 22.3748 152.304 22.3926 161.238 22.3533C162.196 22.3497 162.768 22.6393 163.312 23.4223C166.383 27.859 169.529 32.2421 172.596 36.6824C172.968 37.2223 173.19 37.9802 173.197 38.638C173.243 44.5191 173.222 50.4002 173.222 56.435H177.516V68.4796L177.519 68.4832ZM169.161 46.4139H149.186V30.3616H163.233C162.446 29.2354 161.778 28.3559 161.202 27.4193C160.738 26.6613 160.183 26.3539 159.257 26.3682C154.971 26.4218 150.681 26.3896 146.391 26.3932C145.965 26.3932 145.543 26.4289 144.996 26.454V36.3428H140.999V26.479H137.142V58.2762C138.171 57.8186 139.069 57.2966 140.041 57.0285C140.86 56.7996 141.053 56.4135 141.049 55.6306C141.017 51.2153 141.035 46.8 141.035 42.3847C141.035 41.777 141.035 41.1656 141.035 40.5364H145.104V56.3849H169.161V46.4139ZM153.187 42.4527C155.972 42.4527 158.603 42.4527 161.231 42.4527C163.859 42.4527 166.472 42.4527 169.472 42.4527C169.175 40.8331 169.143 39.3459 168.621 38.0588C167.394 35.0307 165.089 33.7615 161.774 34.3979C160.913 34.5624 159.994 34.4229 159.1 34.4229H153.187V42.4527ZM62.6075 72.5445C65.9503 72.5445 68.6602 69.8381 68.6352 66.524C68.6102 63.2742 65.9324 60.5893 62.6683 60.5428C59.3649 60.4928 56.6049 63.217 56.5942 66.5347C56.5834 69.8846 59.2505 72.5481 62.6111 72.5481L62.6075 72.5445ZM143.03 72.5445C146.369 72.5445 149.086 69.8238 149.061 66.524C149.033 63.2277 146.244 60.4963 142.955 60.5428C139.626 60.5929 137.002 63.2992 137.024 66.667C137.045 69.9347 139.716 72.5481 143.03 72.5445ZM152.976 64.4075H173.411V60.5786H151.281C151.853 61.8692 152.386 63.0704 152.976 64.4075ZM54.2667 60.768C50.352 59.4953 47.8565 61.3973 45.8223 64.479H52.6258C53.2049 63.1741 53.7519 61.9335 54.2667 60.768Z" fill="#162854"/>
<rect x="46.4743" y="21.4618" width="82.0143" height="31.2011" stroke="#162854" stroke-width="3.56584"/>
<g clip-path="url(#clip0_1245_103265)">
<path d="M19.3271 8.90117C18.7658 7.98143 18.2519 7.14338 17.7406 6.30269C17.1819 5.3803 17.1345 4.43684 17.7169 3.51445C18.3046 2.5868 19.1927 2.27319 20.2601 2.34961C24.7165 2.66849 29.1729 2.98474 33.6267 3.29572C36.0434 3.46438 37.0395 5.06669 36.0987 7.31467C34.4015 11.3679 32.6806 15.4106 30.994 19.4691C30.5433 20.5496 29.895 21.3349 28.6537 21.4298C27.4125 21.5247 26.6298 20.8526 26.0474 19.838C25.6257 19.1027 25.1619 18.3886 24.6559 17.5716C24.308 17.7745 24.0049 17.9432 23.7098 18.125C19.3192 20.821 14.9287 23.5223 10.5355 26.2156C8.65646 27.3673 7.38884 27.0695 6.23718 25.2116C5.50982 24.0414 4.78245 22.8687 4.07353 21.6854C3.0958 20.0488 3.42786 18.6811 5.0618 17.6744C9.42072 14.9863 13.7876 12.3114 18.1491 9.63118C18.5128 9.4098 18.8712 9.18316 19.3245 8.90117L19.3271 8.90117ZM20.6527 5.36186C21.1482 6.18146 21.5171 6.7955 21.8887 7.40428C22.9982 9.22269 22.7399 10.2874 20.9215 11.4048C16.415 14.1719 11.9085 16.9417 7.40202 19.7115C7.15956 19.8617 6.93029 20.033 6.64303 20.2307C7.38884 21.4403 8.10303 22.5973 8.83303 23.7805C9.28368 23.5091 9.62365 23.3114 9.95834 23.1085C14.4359 20.3572 18.9107 17.5979 23.3962 14.8545C24.9089 13.9295 26.0342 14.2062 26.9829 15.6978C27.4309 16.4015 27.8605 17.1157 28.4008 17.988C30.0848 13.9796 31.6897 10.1609 33.3316 6.26052C29.0807 5.96009 24.9879 5.6702 20.6527 5.36449L20.6527 5.36186Z" fill="#02B47E"/>
<path d="M40.1744 25.2074C40.5874 25.5234 41.1823 25.784 41.4762 26.241C41.9024 26.903 41.6019 27.5662 40.9978 28.0574C38.9541 29.7113 36.9102 31.3625 34.8662 33.0138C34.2519 33.5088 33.6499 34.0183 33.023 34.4961C32.2229 35.1053 31.3689 35.0601 30.8278 34.414C30.2741 33.7507 30.3559 32.8686 31.1248 32.2418C33.7948 30.0597 36.4859 27.8991 39.1773 25.7411C39.4007 25.5616 39.689 25.4621 40.1767 25.2045L40.1744 25.2074Z" fill="#162854"/>
<path d="M40.8718 31.6156C41.2744 31.8877 41.9518 32.1043 42.1222 32.5251C42.3113 32.9942 42.2588 33.8995 41.9333 34.1835C40.0419 35.8465 38.0652 37.4131 36.063 38.9429C35.385 39.4611 34.6671 39.1695 34.1642 38.5322C33.6765 37.9118 33.8304 37.0346 34.5454 36.4459C36.2903 35.0093 38.0543 33.5998 39.8212 32.1925C40.069 31.9943 40.3847 31.8785 40.8741 31.6127L40.8718 31.6156Z" fill="#162854"/>
<path d="M41.7122 37.87C42.0101 38.0851 42.6338 38.3185 42.8537 38.7549C43.056 39.1534 43.0296 39.9867 42.7451 40.2581C41.617 41.3374 40.3855 42.325 39.1165 43.24C38.5261 43.6659 37.7306 43.4841 37.3983 42.8537C37.1538 42.3884 37.0328 41.45 37.3051 41.1879C38.4967 40.0378 39.8511 39.0572 41.1514 38.0219C41.2219 37.9661 41.3389 37.9685 41.7125 37.8726L41.7122 37.87Z" fill="#162854"/>
<path d="M26.1804 61.6283C25.851 61.768 25.5452 61.9709 25.2395 62.1633C20.2429 65.3257 15.2488 68.4935 10.2495 71.6533C9.94905 71.843 9.61436 72.1039 9.29021 72.1118C7.66681 72.1593 6.03814 72.1329 4.41211 72.1329C4.39366 72.0697 4.37522 72.0038 4.35677 71.9405C17.9079 63.3545 31.4617 54.7684 45.2395 46.04V42.3452C44.6228 42.8195 43.9956 43.2781 43.3499 43.7129C41.4761 44.9727 39.5418 46.1401 37.5942 47.3735C37.3439 46.994 37.1436 46.6988 36.9512 46.3984C34.0997 41.9051 31.2535 37.4065 28.402 32.9131C27.1317 30.9129 25.7798 30.6045 23.7795 31.8695C18.5588 35.169 13.3382 38.4712 8.12273 41.7786C6.00915 43.12 5.71662 44.4403 7.04749 46.546C9.89371 51.0419 12.7452 55.5379 15.5914 60.0339C15.7785 60.3264 15.9577 60.6242 16.1527 60.9431C15.7864 61.1803 15.5123 61.3621 15.2356 61.536C10.7133 64.4033 6.18836 67.2706 1.66868 70.1432C0.372068 70.9681 -0.104936 71.988 0.227122 73.1765C0.585535 74.4626 1.51319 75.0977 3.06807 75.103C4.97608 75.1109 6.88937 75.1952 8.78685 75.0661C9.7593 75.0002 10.8266 74.7393 11.6462 74.2333C16.7905 71.0603 21.8794 67.7951 26.9815 64.5536C27.2582 64.3796 27.5455 64.2004 27.7642 63.9659C28.2755 63.4151 28.3229 62.772 27.8986 62.1633C27.4823 61.565 26.884 61.3278 26.1751 61.6283H26.1804ZM18.7328 38.5687C19.8159 40.2738 20.8806 41.9472 22.0217 43.7472C21.2127 44.2637 20.4247 44.7671 19.5339 45.3363C18.4165 43.5706 17.3545 41.8866 16.2503 40.142C17.0883 39.6123 17.8552 39.1247 18.7328 38.5713V38.5687ZM9.28757 44.5484C10.8055 43.5864 12.2155 42.693 13.715 41.7417C14.0945 42.3188 14.4714 42.8802 14.8324 43.4494C15.6626 44.7513 16.4664 46.0663 17.3149 47.355C18.1477 48.6148 19.3574 48.8941 20.6382 48.1219C21.7898 47.4262 22.9309 46.7094 24.0483 45.9609C25.3397 45.0992 25.5927 43.8948 24.7625 42.556C23.6241 40.7165 22.4539 38.8981 21.239 36.9822C22.7122 36.044 24.138 35.1374 25.6849 34.1544C28.8105 39.0852 31.9097 43.9765 35.0722 48.9679C29.6169 52.4255 24.1986 55.8594 18.6748 59.3618C15.5545 54.4416 12.4527 49.545 9.28493 44.5457L9.28757 44.5484Z" fill="#162854"/>
<path d="M45.2429 49.4553C45.1428 49.5607 45.0163 49.6582 44.8581 49.7557C42.2596 51.3633 39.6849 53.0104 37.1048 54.6443C35.3549 55.7512 33.5998 56.8475 31.8631 57.9755C31.0355 58.5131 30.8405 59.3801 31.3202 60.0969C31.7761 60.7795 32.5904 60.9324 33.4127 60.4817C33.6419 60.3552 33.8607 60.2076 34.0821 60.0653C37.8006 57.7067 41.5191 55.3506 45.2403 52.9946V49.4526L45.2429 49.4553Z" fill="#162854"/>
</g>
<defs>
<clipPath id="clip0_1245_103265">
<rect width="70.4253" height="75.0742" fill="white" transform="translate(0.117188 0.0664062)"/>
</clipPath>
</defs>
</svg>
