<svg width="35" height="35" viewBox="0 0 35 35" fill="none" xmlns="http://www.w3.org/2000/svg">
<g id="Layer_1" clip-path="url(#clip0_2957_72518)">
<path id="Vector" d="M26.0857 34.9178C26.0289 34.8853 25.9731 34.8511 25.9154 34.8213C25.4279 34.5727 25.1838 34.0852 25.3036 33.5968C25.427 33.0914 25.8406 32.7625 26.3866 32.7607C27.813 32.7553 29.2393 32.7589 30.6656 32.7589C30.9909 32.7589 31.3171 32.7589 31.6423 32.7589C32.492 32.7589 32.8308 32.4237 32.8317 31.5839C32.8317 29.8774 32.8308 28.1708 32.8335 26.4634C32.8335 26.3075 32.838 26.1462 32.8785 25.9976C33.0182 25.4795 33.5012 25.1542 34.0238 25.2092C34.5391 25.2632 34.9797 25.693 34.9825 26.2183C34.9942 28.1609 35.0194 30.1045 34.9707 32.0453C34.9365 33.3968 33.8796 34.5519 32.5479 34.8448C32.4614 34.8637 32.3776 34.8925 32.292 34.916H26.0857V34.9178Z" fill="white"/>
<path id="Vector_2" d="M0.450195 26.0151C0.810607 25.3528 1.23499 25.1014 1.7702 25.233C2.34416 25.3735 2.60816 25.8006 2.60816 26.5881C2.60816 28.273 2.60726 29.9589 2.60816 31.6438C2.60816 32.398 2.96857 32.7584 3.72274 32.7593C5.49866 32.7611 7.27369 32.7575 9.04962 32.762C9.60286 32.7638 10.0353 33.1161 10.1444 33.6297C10.248 34.118 9.9894 34.5974 9.49473 34.838C9.44608 34.8614 9.40102 34.892 9.35417 34.919H3.14878C3.0749 34.8965 3.00191 34.8704 2.92713 34.8533C1.78462 34.583 1.01244 33.8955 0.61148 32.7944C0.543902 32.6079 0.503356 32.4115 0.450195 32.2205C0.450195 30.1517 0.450195 28.0838 0.450195 26.0151Z" fill="white"/>
<path id="Vector_3" d="M0.450195 3.08475C0.499752 2.90274 0.5421 2.71893 0.599766 2.53963C0.99712 1.2926 2.16846 0.404187 3.48576 0.392474C5.33918 0.376255 7.1917 0.384364 9.04512 0.38887C9.68034 0.390672 10.1561 0.851999 10.1642 1.45028C10.1723 2.06388 9.69296 2.54143 9.04332 2.54323C7.28 2.54864 5.51669 2.54413 3.75337 2.54593C2.95686 2.54593 2.61086 2.89553 2.60996 3.69835C2.60996 5.44995 2.61177 7.20156 2.60816 8.95316C2.60726 9.53342 2.26487 9.96862 1.73957 10.0794C1.244 10.1849 0.762853 9.91546 0.520476 9.39917C0.502455 9.36042 0.474523 9.32618 0.451096 9.29014C0.451096 7.22138 0.451096 5.15351 0.451096 3.08475H0.450195Z" fill="white"/>
<path id="Vector_4" d="M10.7216 4.70138C11.6316 4.70138 12.5417 4.69777 13.4517 4.70138C15.2952 4.70948 16.6333 6.04932 16.6396 7.89823C16.645 9.72912 16.6459 11.56 16.6396 13.3909C16.6333 15.2173 15.2907 16.5625 13.4679 16.5697C11.6253 16.5769 9.78273 16.5769 7.94013 16.5697C6.11915 16.5625 4.77571 15.2137 4.7694 13.39C4.764 11.5474 4.76219 9.70569 4.7694 7.86309C4.77661 6.05923 6.12275 4.71399 7.92391 4.70228C8.85647 4.69597 9.78904 4.70138 10.7216 4.70138ZM14.4816 10.6707C14.4816 9.76066 14.4834 8.85062 14.4816 7.94058C14.4798 7.23057 14.1113 6.86114 13.4022 6.85934C11.6046 6.85664 9.80706 6.85664 8.0086 6.85934C7.29769 6.86024 6.92827 7.22876 6.92737 7.93877C6.92467 9.73633 6.92467 11.533 6.92737 13.3305C6.92827 14.0405 7.29769 14.4109 8.0068 14.4118C9.80436 14.4145 11.6019 14.4145 13.4004 14.4118C14.1104 14.4109 14.4789 14.0415 14.4816 13.3323C14.4843 12.4448 14.4816 11.5573 14.4816 10.6698V10.6707Z" fill="white"/>
<path id="Vector_5" d="M30.6736 10.6562C30.6736 11.5662 30.6773 12.4763 30.6736 13.3854C30.6637 15.2289 29.323 16.5669 27.475 16.5723C25.6432 16.5768 23.8123 16.5786 21.9805 16.5723C20.1559 16.566 18.8089 15.2217 18.8026 13.3998C18.7963 11.5572 18.7963 9.7155 18.8026 7.87289C18.8089 6.05191 20.1577 4.71028 21.9832 4.70397C23.8258 4.69857 25.6684 4.69676 27.511 4.70397C29.3158 4.71118 30.6592 6.05462 30.6728 7.85848C30.68 8.79104 30.6736 9.72361 30.6736 10.6553V10.6562ZM24.762 6.86104C23.8853 6.86104 23.0095 6.86104 22.1328 6.86104C21.3038 6.86104 20.9596 7.20073 20.9587 8.01796C20.9587 9.77046 20.9578 11.523 20.9587 13.2755C20.9587 14.0576 21.3101 14.4144 22.0814 14.4153C23.8565 14.4171 25.6324 14.4171 27.4074 14.4153C28.1445 14.4153 28.5121 14.0531 28.513 13.3259C28.5157 11.5284 28.5157 9.73172 28.513 7.93416C28.5121 7.22956 28.1391 6.86464 27.4245 6.86194C26.537 6.85924 25.6495 6.86194 24.762 6.86194V6.86104Z" fill="white"/>
<path id="Vector_6" d="M10.6921 30.6022C9.78203 30.6022 8.87199 30.6058 7.96195 30.6022C6.11664 30.5941 4.77411 29.2543 4.7687 27.4099C4.7633 25.579 4.7633 23.7481 4.7687 21.9172C4.77411 20.0764 6.12025 18.7384 7.96916 18.7338C9.78924 18.7293 11.6093 18.7293 13.4294 18.7338C15.2972 18.7384 16.6344 20.0737 16.6398 21.9415C16.6443 23.7616 16.6452 25.5808 16.6398 27.4009C16.6344 29.2651 15.2936 30.5968 13.4222 30.6031C12.5122 30.6058 11.6021 30.6031 10.6921 30.6031V30.6022ZM10.738 20.89C9.82799 20.89 8.91794 20.8882 8.0079 20.89C7.29699 20.8918 6.92847 21.2603 6.92757 21.9703C6.92487 23.7679 6.92487 25.5646 6.92757 27.3621C6.92847 28.0721 7.29789 28.4415 8.0079 28.4424C9.80546 28.4451 11.603 28.4451 13.4015 28.4424C14.1115 28.4415 14.4809 28.0721 14.4818 27.3621C14.4845 25.5646 14.4845 23.7679 14.4818 21.9703C14.4809 21.2603 14.1115 20.8918 13.4015 20.89C12.514 20.8873 11.6264 20.89 10.7389 20.89H10.738Z" fill="white"/>
<path id="Vector_7" d="M26.3555 24.1267C27.1908 24.1267 27.9864 24.1258 28.782 24.1267C29.9443 24.1285 30.6705 24.8566 30.6723 26.0225C30.6742 26.9325 30.676 27.8426 30.6723 28.7526C30.6678 29.8519 29.929 30.5961 28.8361 30.6006C27.9035 30.6042 26.9709 30.6042 26.0384 30.6006C24.9418 30.5961 24.203 29.8546 24.1985 28.7562C24.1948 27.9489 24.1985 27.1407 24.1985 26.2847C24.0633 26.2847 23.9444 26.2847 23.8263 26.2847C22.7703 26.2847 21.7134 26.2874 20.6574 26.2847C19.5401 26.2811 18.8049 25.5432 18.8022 24.4223C18.7995 23.1419 18.7986 21.8606 18.8022 20.5803C18.8049 19.4801 19.5437 18.7359 20.6385 18.7332C21.9306 18.7296 23.2226 18.7296 24.5156 18.7332C25.6113 18.7359 26.3528 19.4783 26.3564 20.5758C26.36 21.7435 26.3573 22.9103 26.3573 24.1276L26.3555 24.1267ZM20.9827 20.9038V24.0997H24.1786V20.9038H20.9827ZM28.491 28.4274V26.3108H26.3726V28.4274H28.491Z" fill="white"/>
<path id="Vector_8" d="M29.2082 0.38752C30.0623 0.38752 30.9156 0.385718 31.7698 0.38752C33.6421 0.392926 34.9838 1.72285 34.9892 3.58618C34.9946 5.3612 34.9919 7.13533 34.9892 8.91036C34.9883 9.61587 34.5306 10.1078 33.8926 10.0979C33.2709 10.088 32.8321 9.60145 32.8312 8.90946C32.8294 7.17948 32.8312 5.4495 32.8312 3.71953C32.8312 2.87887 32.4924 2.54549 31.6419 2.54549C29.9002 2.54549 28.1585 2.54909 26.4177 2.54368C25.5824 2.54098 25.0436 1.7733 25.3662 1.04437C25.5626 0.599262 25.9239 0.386619 26.4105 0.38752C27.343 0.38752 28.2756 0.38752 29.2082 0.38752Z" fill="white"/>
<path id="Vector_9" d="M9.08517 10.6089C8.98876 9.42679 9.46811 8.9979 10.6881 8.9961C11.9378 8.9943 12.346 9.40877 12.3442 10.6468C12.3433 11.847 11.9432 12.2813 10.7016 12.2776C9.49514 12.274 8.98066 11.8875 9.08427 10.6098L9.08517 10.6089Z" fill="white"/>
<path id="Vector_10" d="M26.3557 10.6413C26.4548 11.8631 25.961 12.2794 24.7419 12.2794C23.5129 12.2794 23.0921 11.8748 23.0957 10.6188C23.0993 9.41142 23.5201 8.92396 24.714 9.01947C24.859 9.03119 25.0059 9.02038 25.1519 9.02128C25.9268 9.02488 26.352 9.45467 26.3557 10.2377C26.3557 10.3728 26.3557 10.5071 26.3557 10.6422V10.6413Z" fill="white"/>
<path id="Vector_11" d="M10.7285 23.0483C11.9071 22.9483 12.3432 23.4358 12.3441 24.6504C12.345 25.9037 11.9287 26.3056 10.6943 26.3074C9.44908 26.3092 9.06704 25.846 9.06254 24.699C9.05803 23.4151 9.4689 22.951 10.7285 23.0474V23.0483Z" fill="white"/>
</g>
<defs>
<clipPath id="clip0_2957_72518">
<rect width="34.55" height="34.5365" fill="white" transform="translate(0.449219 0.382812)"/>
</clipPath>
</defs>
</svg>
