<svg width="40" height="40" viewBox="0 0 40 40" fill="none" xmlns="http://www.w3.org/2000/svg">
<path d="M9.11849 14.9987C12.3401 14.9987 14.9518 12.387 14.9518 9.16536C14.9518 5.9437 12.3401 3.33203 9.11849 3.33203C5.89683 3.33203 3.28516 5.9437 3.28516 9.16536C3.28516 12.387 5.89683 14.9987 9.11849 14.9987Z" stroke="#22315F" stroke-width="2.5"/>
<path d="M28.2845 25H33.2845C35.1178 25 36.6178 26.5 36.6178 28.3333V33.3333C36.6178 35.1667 35.1178 36.6667 33.2845 36.6667H28.2845C26.4512 36.6667 24.9512 35.1667 24.9512 33.3333V28.3333C24.9512 26.5 26.4512 25 28.2845 25Z" stroke="#22315F" stroke-width="2.5"/>
<path d="M19.9988 8.33203H24.4655C27.5489 8.33203 28.9822 12.1487 26.6655 14.182L13.3489 25.832C11.0322 27.8487 12.4655 31.6654 15.5322 31.6654H19.9988" stroke="#22315F" stroke-width="2.5" stroke-linecap="round" stroke-linejoin="round"/>
<path d="M9.14223 9.16536H9.16149" stroke="#22315F" stroke-width="3.33333" stroke-linecap="round" stroke-linejoin="round"/>
</svg>
