<svg width="24" height="25" viewBox="0 0 24 25" fill="none" xmlns="http://www.w3.org/2000/svg">
<path d="M16 2.82812H8C4 2.82812 2 4.82812 2 8.82812V21.8281C2 22.3781 2.45 22.8281 3 22.8281H16C20 22.8281 22 20.8281 22 16.8281V8.82812C22 4.82812 20 2.82812 16 2.82812Z" stroke="#22315F" stroke-width="1.5" stroke-linecap="round" stroke-linejoin="round"/>
<path d="M12.9108 8.66632L7.72077 13.8563C7.52077 14.0563 7.33077 14.4463 7.29077 14.7263L7.01078 16.7063C6.91078 17.4263 7.41077 17.9263 8.13077 17.8263L10.1108 17.5463C10.3908 17.5063 10.7808 17.3163 10.9808 17.1163L16.1708 11.9263C17.0608 11.0363 17.4908 9.99632 16.1708 8.67632C14.8508 7.34632 13.8108 7.76632 12.9108 8.66632Z" stroke="#22315F" stroke-width="1.5" stroke-miterlimit="10" stroke-linecap="round" stroke-linejoin="round"/>
<path d="M12.1699 9.40625C12.6099 10.9763 13.8399 12.2163 15.4199 12.6562" stroke="#22315F" stroke-width="1.5" stroke-miterlimit="10" stroke-linecap="round" stroke-linejoin="round"/>
</svg>
