<svg width="22" height="22" viewBox="0 0 22 22" fill="none" xmlns="http://www.w3.org/2000/svg">
<path d="M20.4424 14.4961C20.4424 17.7779 17.7882 20.4322 14.5063 20.4322L15.3968 18.9482" stroke="#162854" stroke-width="1.27202" stroke-linecap="round" stroke-linejoin="round"/>
<path d="M1.78613 7.71343C1.78613 4.43162 4.44041 1.77734 7.72221 1.77734L6.8318 3.26136" stroke="#162854" stroke-width="1.27202" stroke-linecap="round" stroke-linejoin="round"/>
<path d="M13.5309 13.9549C13.5309 16.8466 11.1904 19.1871 8.29864 19.1871C5.40692 19.1871 3.06641 16.8466 3.06641 13.9549C3.06641 11.0632 5.40692 8.72266 8.29864 8.72266C8.43432 8.72266 8.56152 8.73115 8.70568 8.73963C11.2752 8.93468 13.3273 10.9869 13.5224 13.5563C13.5224 13.6835 13.5309 13.8108 13.5309 13.9549Z" stroke="#162854" stroke-width="1.27202" stroke-miterlimit="10" stroke-linecap="round" stroke-linejoin="round"/>
<path d="M19.17 8.30644C19.17 11.1982 16.8295 13.5387 13.9378 13.5387H13.5223C13.3272 10.9692 11.275 8.917 8.70557 8.72195V8.30644C8.70557 5.41472 11.0461 3.07422 13.9378 3.07422C16.8295 3.07422 19.17 5.41472 19.17 8.30644Z" stroke="#162854" stroke-width="1.27202" stroke-miterlimit="10" stroke-linecap="round" stroke-linejoin="round"/>
</svg>
