<svg width="25" height="24" viewBox="0 0 25 24" fill="none" xmlns="http://www.w3.org/2000/svg">
<rect width="25" height="24" fill="#D8D8D8"/>
<g clip-path="url(#clip0_2063_179585)">
<rect x="-195" y="-135" width="414" height="896" rx="51.3" fill="#EFF3F7"/>
<rect x="-24.6821" y="-9.62891" width="73.3663" height="76.2624" rx="12.7202" fill="white"/>
<path d="M24.1613 11.9698C24.1613 18.5266 18.846 23.842 12.2892 23.842C5.73234 23.842 0.416992 18.5266 0.416992 11.9698C0.416992 5.413 5.73234 0.0976562 12.2892 0.0976562C18.846 0.0976562 24.1613 5.413 24.1613 11.9698ZM1.60421 11.9698C1.60421 17.871 6.38802 22.6548 12.2892 22.6548C18.1903 22.6548 22.9741 17.871 22.9741 11.9698C22.9741 6.06869 18.1903 1.28487 12.2892 1.28487C6.38802 1.28487 1.60421 6.06869 1.60421 11.9698Z" fill="#02B47E"/>
<path d="M12.2892 0.0994244C18.846 0.0994244 24.1613 5.41477 24.1613 11.9716C24.1613 18.5284 18.846 23.8438 12.2892 23.8438C5.73234 23.8438 0.416992 18.5284 0.416992 11.9716C0.416992 5.41477 5.73234 0.0994244 12.2892 0.0994244ZM12.2892 22.6565C18.1903 22.6565 22.9741 17.8727 22.9741 11.9716C22.9741 6.07045 18.1903 1.28664 12.2892 1.28664C6.38802 1.28664 1.60421 6.07045 1.60421 11.9716C1.60421 17.8727 6.38802 22.6565 12.2892 22.6565Z" fill="#02B47E"/>
<path d="M8.04932 13.1358L10.3621 15.3619L16.5294 9.42578" stroke="#02B47E" stroke-width="1.27202" stroke-linecap="round" stroke-linejoin="round"/>
</g>
<defs>
<clipPath id="clip0_2063_179585">
<rect x="-195" y="-135" width="414" height="896" rx="51.3" fill="white"/>
</clipPath>
</defs>
</svg>
