<svg width="25" height="24" viewBox="0 0 25 24" fill="none" xmlns="http://www.w3.org/2000/svg">
<rect width="25" height="24" fill="#D8D8D8"/>
<g clip-path="url(#clip0_2063_179585)">
<rect x="-116" y="-135" width="414" height="896" rx="51.3" fill="#EFF3F7"/>
<rect x="-24.8408" y="-9.62891" width="73.3663" height="76.2624" rx="12.7202" fill="white"/>
<path d="M24.0021 11.9698C24.0021 18.5266 18.6868 23.842 12.13 23.842C5.57316 23.842 0.257812 18.5266 0.257812 11.9698C0.257812 5.413 5.57316 0.0976562 12.13 0.0976562C18.6868 0.0976562 24.0021 5.413 24.0021 11.9698ZM1.44503 11.9698C1.44503 17.871 6.22884 22.6548 12.13 22.6548C18.0311 22.6548 22.8149 17.871 22.8149 11.9698C22.8149 6.06869 18.0311 1.28487 12.13 1.28487C6.22884 1.28487 1.44503 6.06869 1.44503 11.9698Z" fill="#2893E5"/>
<path d="M12.13 0.0994244C18.6868 0.0994244 24.0021 5.41477 24.0021 11.9716C24.0021 18.5284 18.6868 23.8438 12.13 23.8438C5.57316 23.8438 0.257812 18.5284 0.257812 11.9716C0.257812 5.41477 5.57316 0.0994244 12.13 0.0994244ZM12.13 22.6565C18.0311 22.6565 22.8149 17.8727 22.8149 11.9716C22.8149 6.07045 18.0311 1.28664 12.13 1.28664C6.22884 1.28664 1.44503 6.07045 1.44503 11.9716C1.44503 17.8727 6.22884 22.6565 12.13 22.6565Z" fill="#2893E5"/>
<path d="M8.94043 15.3615L11.4497 12.0127L9.03371 8.78516H10.4236L12.1306 11.1452L13.8377 8.78516H15.2369L12.8209 12.0127L15.3209 15.3615H13.9216L12.1306 12.8989L10.349 15.3615H8.94043Z" fill="#2893E5"/>
</g>
<defs>
<clipPath id="clip0_2063_179585">
<rect x="-116" y="-135" width="414" height="896" rx="51.3" fill="white"/>
</clipPath>
</defs>
</svg>
