<svg width="28" height="24" viewBox="0 0 28 24" fill="none" xmlns="http://www.w3.org/2000/svg">
<g clip-path="url(#clip0_27_5027)">
<path d="M26.1806 15.0234C26.1806 12.4663 26.1882 9.97441 26.17 7.48246C26.1685 7.20373 26.0731 6.88258 25.9155 6.65384C24.6158 4.77238 23.2827 2.91516 21.9815 1.03522C21.7512 0.701952 21.5073 0.579248 21.1013 0.580763C17.3157 0.597427 13.5301 0.589853 9.74442 0.591367C9.56112 0.591367 9.37631 0.608031 9.12938 0.62015V15.0825H0.921875V16.7792H9.10363V18.4531H8.50981C5.97999 18.4531 6.60565 18.4001 4.07584 18.4001V20.1815H9.18089C9.80804 22.1857 11.0729 23.4506 13.2104 23.5263C15.5418 23.6097 16.9142 22.3008 17.6096 20.1452C17.8595 20.1452 18.1049 20.1452 18.3488 20.1452C21.5664 20.1391 24.7824 20.1315 28 20.124V15.0204H26.1806V15.0234ZM24.2295 7.23554C24.4507 7.78241 24.4643 8.41107 24.59 9.0973C23.3206 9.0973 22.2087 9.0973 21.0983 9.0973C19.9879 9.0973 18.8699 9.0973 17.6899 9.0973V5.69493H20.1954C20.5742 5.69493 20.9635 5.75401 21.3285 5.68432C22.7313 5.41317 23.7099 5.95246 24.2295 7.23554ZM13.3877 21.8494C11.9834 21.8494 10.8518 20.7435 10.8427 19.359C10.8336 17.9335 11.9455 16.7852 13.3558 16.764C14.7495 16.7443 15.9326 17.9017 15.9432 19.2984C15.9553 20.6981 14.8025 21.8494 13.3877 21.8494ZM14.2648 15.0022V8.28534H12.5408C12.5408 8.55195 12.5408 8.80948 12.5408 9.06852C12.5408 10.9394 12.5333 12.8102 12.5469 14.6811C12.5499 15.0143 12.4681 15.1764 12.1197 15.2734C11.7092 15.3885 11.3274 15.6097 10.8912 15.8021V2.32891H12.5257V6.50841H14.2193V2.31831C14.4496 2.3077 14.6298 2.29407 14.8101 2.29255C16.6279 2.29104 18.4443 2.30467 20.2621 2.28195C20.6544 2.27741 20.8892 2.40617 21.0862 2.72732C21.3285 3.12421 21.6133 3.49535 21.9466 3.97405H15.9947V10.7758H24.4582V15.0007H14.2648V15.0022ZM26.2609 18.4001H17.602C17.3505 17.8335 17.1248 17.3245 16.884 16.7776H26.2609V18.4001Z" fill="#162854"/>
</g>
<defs>
<clipPath id="clip0_27_5027">
<rect width="27.0781" height="22.9516" fill="white" transform="translate(0.921997 0.581543)"/>
</clipPath>
</defs>
</svg>
