<svg width="24" height="25" viewBox="0 0 24 25" fill="none" xmlns="http://www.w3.org/2000/svg">
<path d="M17 22.4219H7C3 22.4219 2 21.4219 2 17.4219V15.4219C2 11.4219 3 10.4219 7 10.4219H17C21 10.4219 22 11.4219 22 15.4219V17.4219C22 21.4219 21 22.4219 17 22.4219Z" stroke="#292D32" stroke-width="1.5" stroke-linecap="round" stroke-linejoin="round"/>
<path d="M6 10.4219V8.42188C6 5.11188 7 2.42188 12 2.42188C16.5 2.42188 18 4.42188 18 7.42188" stroke="#292D32" stroke-width="1.5" stroke-linecap="round" stroke-linejoin="round"/>
<path d="M12 18.9219C13.3807 18.9219 14.5 17.8026 14.5 16.4219C14.5 15.0412 13.3807 13.9219 12 13.9219C10.6193 13.9219 9.5 15.0412 9.5 16.4219C9.5 17.8026 10.6193 18.9219 12 18.9219Z" stroke="#292D32" stroke-width="1.5" stroke-linecap="round" stroke-linejoin="round"/>
</svg>
