<svg width="64" height="70" viewBox="0 0 64 70" fill="none" xmlns="http://www.w3.org/2000/svg">
<path d="M34.6559 28.8129C34.6078 28.7743 34.5607 28.737 34.5145 28.701V51.2391C34.5145 52.585 33.4235 53.6761 32.0775 53.6761C30.7316 53.6761 29.6405 52.585 29.6405 51.2391V28.701C29.5943 28.737 29.5472 28.7743 29.4991 28.8129C28.4508 29.6548 27.2046 30.907 25.3532 32.775L20.8111 37.3578C19.8636 38.3137 18.3206 38.3206 17.3647 37.3732C16.4087 36.4257 16.4018 34.8827 17.3493 33.9267L21.9904 29.244C23.7171 27.5018 25.1572 26.0487 26.4472 25.0127C27.8003 23.926 29.2224 23.0995 30.9549 22.8786C31.7003 22.7836 32.4547 22.7836 33.2002 22.8786C34.9327 23.0995 36.3548 23.926 37.7079 25.0127C38.9979 26.0487 40.4379 27.5017 42.1645 29.2439L46.8058 33.9268C47.7532 34.8827 47.7464 36.4257 46.7904 37.3732C45.8345 38.3206 44.2915 38.3137 43.344 37.3578L38.8019 32.775C36.9505 30.907 35.7042 29.6548 34.6559 28.8129Z" fill="#FAAD35"/>
<path fill-rule="evenodd" clip-rule="evenodd" d="M56.0569 3.63028C53.4369 1.72673 50.3683 0.874367 46.581 0.464047C42.8698 0.0619645 38.1921 0.0619856 32.2246 0.0620121H32.0416C28.2722 0.0620121 25.0314 0.0620121 22.2461 0.15744C16.1586 0.366005 11.6843 1.02478 8.09818 3.63028C6.51204 4.78268 5.11716 6.17756 3.96475 7.76371C1.35925 11.3499 0.700477 15.8241 0.491914 21.9116C0.396485 24.697 0.396485 27.9378 0.396485 31.7073V38.3888C0.396458 44.3563 0.396437 49.0341 0.798518 52.7452C1.20884 56.5325 2.0612 59.6011 3.96475 62.2211C5.11716 63.8072 6.51204 65.2021 8.09818 66.3545C10.7182 68.2581 13.7868 69.1104 17.574 69.5208C21.2852 69.9228 25.9628 69.9228 31.9302 69.9228H32.2246C38.192 69.9228 42.8699 69.9228 46.581 69.5208C50.3683 69.1104 53.4369 68.2581 56.0569 66.3545C57.643 65.2021 59.0379 63.8072 60.1903 62.2211C62.0939 59.6011 62.9462 56.5325 63.3565 52.7452C63.7586 49.0341 63.7586 44.3565 63.7586 38.3891V31.596C63.7586 25.6286 63.7586 20.9507 63.3565 17.2396C62.9462 13.4523 62.0939 10.3837 60.1903 7.76371C59.0379 6.17756 57.643 4.78268 56.0569 3.63028ZM32.0775 4.93602C38.2239 4.93602 42.6379 4.93937 46.056 5.3097C49.4286 5.67509 51.5413 6.37415 53.192 7.57344C54.3644 8.42521 55.3954 9.45621 56.2472 10.6286C57.4464 12.2793 58.1455 14.392 58.5109 17.7646C58.8812 21.1827 58.8846 25.5967 58.8846 31.7431V38.2417C58.8846 44.3881 58.8812 48.8021 58.5109 52.2203C58.1455 55.5928 57.4464 57.7056 56.2472 59.3562C55.3954 60.5286 54.3644 61.5596 53.192 62.4114C51.5413 63.6107 49.4286 64.3097 46.056 64.6751C42.6379 65.0454 38.2239 65.0488 32.0775 65.0488C25.9312 65.0488 21.5172 65.0454 18.099 64.6751C14.7265 64.3097 12.6137 63.6107 10.9631 62.4114C9.79068 61.5596 8.75968 60.5286 7.90791 59.3562C6.70862 57.7056 6.00956 55.5928 5.64417 52.2203C5.27384 48.8021 5.27049 44.3881 5.27049 38.2417V31.7431C5.27049 28.9865 5.27066 26.5708 5.30564 24.4261C6.84794 24.4119 7.98334 24.3639 9.00561 24.202C17.0002 22.9358 23.2703 16.6657 24.5365 8.67113C24.6984 7.64887 24.7464 6.51347 24.7606 4.97116C26.9053 4.93618 29.321 4.93602 32.0775 4.93602ZM8.24314 19.388C7.57692 19.4935 6.80543 19.5338 5.48964 19.549C5.79433 15.1288 6.49273 12.5764 7.90791 10.6286C8.75968 9.45621 9.79068 8.42521 10.9631 7.57344C12.9109 6.15826 15.4633 5.45986 19.8835 5.15516C19.8683 6.47096 19.828 7.24244 19.7225 7.90867C18.7866 13.8177 14.1522 18.4521 8.24314 19.388Z" fill="#FAAD35"/>
</svg>
