<svg width="25" height="26" viewBox="0 0 25 26" fill="none" xmlns="http://www.w3.org/2000/svg">
<path d="M13.2637 10.6891C13.2484 10.6769 13.2335 10.6651 13.2188 10.6537V17.799C13.2188 18.2257 12.8729 18.5716 12.4462 18.5716C12.0195 18.5716 11.6736 18.2257 11.6736 17.799V10.6537C11.659 10.6651 11.644 10.6769 11.6288 10.6891C11.2964 10.9561 10.9014 11.353 10.3144 11.9453L8.87441 13.3981C8.57403 13.7012 8.08485 13.7034 7.78179 13.403C7.47872 13.1026 7.47654 12.6135 7.77691 12.3104L9.24831 10.8258C9.7957 10.2735 10.2523 9.81281 10.6612 9.48436C11.0902 9.13985 11.5411 8.87781 12.0903 8.8078C12.3266 8.77768 12.5658 8.77768 12.8021 8.8078C13.3514 8.87781 13.8022 9.13986 14.2312 9.48436C14.6402 9.81281 15.0967 10.2735 15.6441 10.8258L17.1155 12.3104C17.4159 12.6135 17.4137 13.1026 17.1107 13.403C16.8076 13.7034 16.3184 13.7012 16.018 13.3981L14.5781 11.9453C13.9911 11.353 13.596 10.9561 13.2637 10.6891Z" fill="#22315F"/>
<path fill-rule="evenodd" clip-rule="evenodd" d="M20.0484 2.70547C19.2178 2.10199 18.245 1.83176 17.0443 1.70168C15.8677 1.5742 14.3847 1.57421 12.4928 1.57422H12.4348C11.2398 1.57422 10.2124 1.57422 9.32935 1.60447C7.39943 1.67059 5.98095 1.87945 4.84402 2.70547C4.34117 3.07082 3.89894 3.51304 3.5336 4.0159C2.70757 5.15282 2.49872 6.57131 2.4326 8.50122C2.40234 9.38427 2.40234 10.4117 2.40234 11.6067V13.725C2.40234 15.6169 2.40233 17.0999 2.5298 18.2765C2.65988 19.4771 2.93011 20.45 3.5336 21.2806C3.89894 21.7835 4.34117 22.2257 4.84402 22.591C5.67465 23.1945 6.6475 23.4647 7.84816 23.5948C9.02471 23.7223 10.5077 23.7223 12.3995 23.7223H12.4929C14.3847 23.7223 15.8678 23.7223 17.0443 23.5948C18.245 23.4647 19.2178 23.1945 20.0484 22.591C20.5513 22.2257 20.9935 21.7835 21.3589 21.2806C21.9623 20.45 22.2326 19.4771 22.3627 18.2765C22.4901 17.0999 22.4901 15.6169 22.4901 13.7251V11.5715C22.4901 9.67962 22.4901 8.19658 22.3627 7.02004C22.2326 5.81937 21.9623 4.84653 21.3589 4.0159C20.9935 3.51304 20.5513 3.07082 20.0484 2.70547ZM12.4462 3.11943C14.3948 3.11943 15.7942 3.12049 16.8779 3.2379C17.947 3.35374 18.6169 3.57536 19.1402 3.95558C19.5119 4.22562 19.8387 4.55247 20.1088 4.92415C20.489 5.44747 20.7106 6.11728 20.8264 7.18648C20.9438 8.27013 20.9449 9.66951 20.9449 11.6181V13.6784C20.9449 15.627 20.9438 17.0264 20.8264 18.11C20.7106 19.1792 20.489 19.849 20.1088 20.3723C19.8387 20.744 19.5119 21.0709 19.1402 21.3409C18.6169 21.7211 17.947 21.9428 16.8779 22.0586C15.7942 22.176 14.3948 22.1771 12.4462 22.1771C10.4976 22.1771 9.09826 22.176 8.0146 22.0586C6.94541 21.9428 6.27559 21.7211 5.75228 21.3409C5.3806 21.0709 5.05374 20.744 4.7837 20.3723C4.40349 19.849 4.18186 19.1792 4.06602 18.11C3.94862 17.0264 3.94756 15.627 3.94756 13.6784V11.6181C3.94756 10.7442 3.94761 9.97834 3.9587 9.2984C4.44766 9.2939 4.80762 9.27869 5.1317 9.22736C7.66625 8.82593 9.65405 6.83812 10.0555 4.30358C10.1068 3.97949 10.122 3.61953 10.1265 3.13057C10.8065 3.11948 11.5723 3.11943 12.4462 3.11943ZM4.88998 7.70117C4.67877 7.73462 4.43418 7.74738 4.01703 7.7522C4.11363 6.35086 4.33504 5.54167 4.7837 4.92415C5.05374 4.55247 5.3806 4.22562 5.75228 3.95558C6.3698 3.50692 7.17898 3.2855 8.58033 3.18891C8.57551 3.60605 8.56275 3.85064 8.52929 4.06185C8.23258 5.93521 6.76334 7.40446 4.88998 7.70117Z" fill="#22315F"/>
</svg>
