<svg width="14" height="14" viewBox="0 0 14 14" fill="none" xmlns="http://www.w3.org/2000/svg">
<path fill-rule="evenodd" clip-rule="evenodd" d="M0.660156 7.41995C0.660156 4.70122 0.660156 3.34186 1.35251 2.38891C1.57612 2.08114 1.84677 1.81049 2.15453 1.58689C3.10748 0.894531 4.46685 0.894531 7.18558 0.894531C9.90431 0.894531 11.2637 0.894531 12.2166 1.58689C12.5244 1.81049 12.795 2.08114 13.0186 2.38891C13.711 3.34186 13.711 4.70122 13.711 7.41995C13.711 10.1387 13.711 11.4981 13.0186 12.451C12.795 12.7588 12.5244 13.0294 12.2166 13.253C11.2637 13.9454 9.90431 13.9454 7.18558 13.9454C4.46685 13.9454 3.10748 13.9454 2.15453 13.253C1.84677 13.0294 1.57612 12.7588 1.35251 12.451C0.660156 11.4981 0.660156 10.1387 0.660156 7.41995ZM7.18558 6.15112C7.4859 6.15112 7.72936 6.39458 7.72936 6.69491V11.0452C7.72936 11.3455 7.4859 11.589 7.18558 11.589C6.88526 11.589 6.64179 11.3455 6.64179 11.0452V6.69491C6.64179 6.39458 6.88526 6.15112 7.18558 6.15112ZM7.18558 5.24481C7.58601 5.24481 7.91063 4.9202 7.91063 4.51977C7.91063 4.11933 7.58601 3.79472 7.18558 3.79472C6.78515 3.79472 6.46053 4.11933 6.46053 4.51977C6.46053 4.9202 6.78515 5.24481 7.18558 5.24481Z" fill="white"/>
</svg>
